<?xml version="1.0" encoding="UTF-8"?><svg xmlns="http://www.w3.org/2000/svg" xmlns:xlink="http://www.w3.org/1999/xlink" height="821.7" preserveAspectRatio="xMidYMid meet" version="1.0" viewBox="491.7 592.2 3029.3 821.7" width="3029.3" zoomAndPan="magnify"><g><g id="change1_1"><path d="M 3014.144531 592.195312 L 723.742188 592.195312 C 596.128906 592.195312 491.71875 709.121094 491.71875 852.03125 C 491.71875 994.941406 596.128906 1111.871094 723.742188 1111.871094 L 3014.144531 1111.871094 C 3141.761719 1111.871094 3246.175781 994.941406 3246.175781 852.03125 C 3246.175781 709.121094 3141.761719 592.195312 3014.144531 592.195312" fill="#fc0"/></g><g id="change2_1"><path d="M 3129.71875 748.910156 C 3126.660156 744.964844 3121.679688 742.894531 3116.738281 743.507812 C 3114.179688 743.824219 3111.777344 744.835938 3109.757812 746.421875 L 3024.375 813.683594 C 3018.242188 818.515625 3017.164062 827.492188 3021.953125 833.6875 C 3024.992188 837.628906 3029.972656 839.703125 3034.933594 839.085938 C 3037.472656 838.769531 3039.894531 837.761719 3041.914062 836.171875 L 3127.277344 768.914062 C 3133.410156 764.078125 3134.507812 755.105469 3129.71875 748.910156" fill="#191919"/></g><g id="change2_2"><path d="M 2847.917969 789.445312 L 2781.097656 703.09375 C 2778.035156 699.148438 2773.0625 697.078125 2768.128906 697.691406 C 2765.574219 698.007812 2763.15625 699.015625 2761.128906 700.605469 C 2755.003906 705.441406 2753.898438 714.414062 2758.695312 720.613281 L 2825.53125 806.960938 C 2828.578125 810.90625 2833.546875 812.976562 2838.5 812.363281 C 2841.054688 812.046875 2843.453125 811.039062 2845.484375 809.449219 C 2851.625 804.613281 2852.710938 795.640625 2847.917969 789.445312" fill="#191919"/></g><g id="change2_3"><path d="M 2969.808594 648.160156 C 2968.636719 648.011719 2967.464844 648.011719 2966.332031 648.15625 C 2959.835938 648.957031 2954.765625 654.070312 2953.976562 660.585938 L 2940.855469 769.203125 C 2939.921875 777.003906 2945.46875 784.140625 2953.210938 785.113281 C 2954.382812 785.257812 2955.550781 785.257812 2956.6875 785.113281 C 2963.183594 784.3125 2968.253906 779.199219 2969.039062 772.683594 L 2982.164062 664.070312 C 2983.09375 656.269531 2977.550781 649.132812 2969.808594 648.160156" fill="#191919"/></g><g id="change2_4"><path d="M 2848.257812 979.171875 C 2845.210938 975.226562 2840.242188 973.15625 2835.289062 973.773438 C 2832.734375 974.085938 2830.316406 975.097656 2828.304688 976.6875 L 2742.921875 1043.949219 C 2736.796875 1048.78125 2735.710938 1057.757812 2740.488281 1063.949219 C 2743.554688 1067.898438 2748.523438 1069.96875 2753.476562 1069.347656 C 2756.015625 1069.039062 2758.429688 1068.027344 2760.460938 1066.4375 L 2845.824219 999.175781 C 2851.96875 994.34375 2853.054688 985.367188 2848.257812 979.171875" fill="#191919"/></g><g id="change2_5"><path d="M 2787.011719 885.054688 L 2679.394531 871.554688 C 2678.246094 871.410156 2677.058594 871.40625 2675.925781 871.550781 C 2669.433594 872.355469 2664.363281 877.464844 2663.574219 883.980469 C 2662.628906 891.777344 2668.160156 898.917969 2675.925781 899.890625 L 2783.539062 913.390625 C 2784.691406 913.535156 2785.859375 913.535156 2787.011719 913.394531 C 2787.027344 913.394531 2787.011719 913.394531 2787.027344 913.394531 C 2793.503906 912.589844 2798.570312 907.480469 2799.363281 900.964844 C 2800.308594 893.164062 2794.777344 886.027344 2787.011719 885.054688" fill="#191919"/></g><g id="change3_1"><path d="M 3423.40625 1359.257812 C 3374.371094 1396.480469 3318.769531 1413.910156 3274.679688 1405.890625 C 3208.363281 1393.820312 3133.253906 1362.269531 3066.960938 1334.4375 C 3052.292969 1328.28125 3037.96875 1322.269531 3024.167969 1316.648438 C 3021.335938 1315.488281 3017.644531 1314.109375 3013.34375 1312.5 C 2968.78125 1295.789062 2920.414062 1275.058594 2910.433594 1240.421875 C 2907.476562 1230.148438 2906.742188 1214.238281 2920.046875 1196.789062 C 2922.445312 1193.640625 2925.296875 1190.800781 2928.535156 1188.339844 C 2958.347656 1165.710938 3013.515625 1178.570312 3072.207031 1194.980469 C 3072.664062 1195.101562 3073.09375 1195.21875 3073.527344 1195.339844 C 3053.589844 1169.460938 3032.871094 1143.488281 3012.738281 1118.238281 C 2963.789062 1056.839844 2913.15625 993.347656 2870.019531 926.976562 C 2855.914062 905.25 2862.890625 873.554688 2885.59375 856.316406 C 2905.574219 841.148438 2931.863281 841.65625 2954.179688 857.636719 L 2956.574219 859.359375 L 3060.847656 996.75 C 3061.148438 983.28125 3066.785156 971.425781 3077.304688 963.449219 C 3082.039062 959.851562 3087.652344 957.144531 3094.003906 955.398438 C 3118.242188 948.730469 3139.519531 966.476562 3147.554688 974.417969 C 3152.5 979.300781 3157.273438 984.582031 3161.941406 990.007812 C 3157.988281 963.867188 3170 951.007812 3176.414062 946.144531 C 3195.660156 931.539062 3224.695312 937.808594 3250.378906 962.121094 C 3254.480469 965.992188 3258.457031 970.035156 3262.324219 974.148438 C 3258.21875 959.011719 3259.535156 943.300781 3275.023438 931.554688 C 3276.449219 930.464844 3277.984375 929.449219 3279.605469 928.527344 C 3303.839844 914.707031 3334.40625 921.585938 3353.933594 945.257812 C 3362.597656 955.75 3381.5625 978.039062 3381.5625 978.039062 C 3384.847656 982.003906 3459.394531 1071.828125 3484.148438 1117.160156 C 3504.886719 1155.109375 3521.042969 1212.609375 3494.195312 1274.660156 C 3481.277344 1304.507812 3456.023438 1334.507812 3423.40625 1359.25 C 3423.40625 1359.25 3423.40625 1359.257812 3423.40625 1359.257812" fill="#1e1e1e"/></g><g id="change4_1"><path d="M 3297.074219 1383.378906 C 3290.835938 1383.378906 3284.773438 1382.851562 3279.050781 1381.8125 C 3215.363281 1370.21875 3141.535156 1339.21875 3076.410156 1311.871094 C 3061.433594 1305.582031 3047.289062 1299.652344 3033.402344 1293.992188 C 3030.382812 1292.75 3026.460938 1291.289062 3021.9375 1289.589844 C 2995.792969 1279.78125 2941.339844 1259.371094 2933.949219 1233.652344 C 2931.871094 1226.453125 2933.691406 1219.242188 2939.5 1211.621094 C 2945.003906 1204.382812 2956.363281 1200.703125 2973.1875 1200.703125 C 3001.792969 1200.703125 3040.195312 1211.441406 3065.613281 1218.542969 C 3074.355469 1220.980469 3081.875 1223.089844 3087.40625 1224.339844 C 3088.625 1224.609375 3089.847656 1224.753906 3091.070312 1224.753906 C 3097.328125 1224.753906 3102.898438 1221.09375 3105.941406 1214.960938 C 3109.136719 1208.539062 3108.597656 1200.980469 3104.613281 1195.710938 C 3080.996094 1164.621094 3056.03125 1133.289062 3031.859375 1102.992188 C 2983.277344 1042.042969 2933.027344 979.023438 2890.53125 913.644531 C 2885.796875 906.347656 2885.945312 896.070312 2890.980469 886.824219 C 2895.480469 878.542969 2904.976562 869.699219 2918.132812 869.699219 C 2925.140625 869.699219 2932.253906 872.191406 2939.328125 877.117188 L 3083.355469 1066.921875 C 3086.871094 1071.46875 3091.734375 1073.953125 3097.027344 1073.953125 C 3103.863281 1073.953125 3110.59375 1069.75 3113.785156 1063.492188 C 3116.808594 1057.542969 3116.183594 1050.890625 3112.09375 1045.242188 L 3094.734375 1022.382812 C 3091.90625 1018.332031 3089.460938 1014.683594 3088.046875 1011.089844 C 3084.640625 1002.460938 3084.363281 994.511719 3087.253906 988.710938 C 3089.613281 984.035156 3094.046875 980.765625 3100.5 978.992188 C 3101.847656 978.621094 3103.285156 978.433594 3104.761719 978.433594 C 3115.929688 978.433594 3127.15625 988.675781 3130.328125 991.816406 C 3139.136719 1000.53125 3147.835938 1011.183594 3156.257812 1021.480469 C 3162.515625 1029.152344 3169.007812 1037.082031 3175.4375 1044.101562 C 3179.125 1048.101562 3183.988281 1050.3125 3189.132812 1050.3125 C 3196.097656 1050.3125 3202.824219 1046.210938 3205.890625 1040.121094 C 3208.824219 1034.3125 3208.074219 1027.722656 3203.855469 1022.03125 C 3202.695312 1020.503906 3201.476562 1018.929688 3200.273438 1017.421875 C 3196.695312 1012.890625 3193.011719 1008.203125 3191.101562 1003.511719 C 3184.847656 988.101562 3183.925781 975.332031 3188.53125 968.472656 C 3190.996094 964.804688 3194.960938 962.945312 3200.296875 962.945312 C 3210.046875 962.945312 3222.175781 969.125 3233.554688 979.898438 C 3242.792969 988.628906 3251.683594 998.6875 3260.300781 1008.421875 C 3266.0625 1014.910156 3272 1021.632812 3278 1027.914062 C 3281.816406 1031.890625 3286.722656 1034.082031 3291.863281 1034.082031 C 3298.464844 1034.082031 3304.507812 1030.5625 3307.660156 1024.902344 C 3310.832031 1019.191406 3310.445312 1012.34375 3306.566406 1006.113281 C 3305.386719 1004.222656 3304.015625 1002.113281 3302.558594 999.878906 C 3294.585938 987.675781 3282.566406 969.230469 3285.351562 957.679688 C 3286.144531 954.359375 3288.242188 951.777344 3291.714844 949.785156 C 3296.300781 947.175781 3301.164062 945.855469 3306.222656 945.855469 C 3316.53125 945.855469 3327.308594 951.457031 3335.046875 960.835938 C 3343.703125 971.304688 3362.710938 993.664062 3362.902344 993.890625 C 3363.632812 994.761719 3439.042969 1085.632812 3462.679688 1128.890625 C 3481.003906 1162.441406 3493.023438 1215.78125 3471.765625 1264.871094 C 3459.378906 1293.449219 3433.214844 1323.070312 3400 1346.132812 C 3365.882812 1369.800781 3328.359375 1383.378906 3297.074219 1383.378906" fill="#fff"/></g></g></svg>