<?xml version="1.0" encoding="UTF-8" standalone="no"?><svg xmlns="http://www.w3.org/2000/svg" xmlns:xlink="http://www.w3.org/1999/xlink" fill="#706a6a" height="669.8" preserveAspectRatio="xMidYMid meet" version="1" viewBox="-1.4 0.0 560.5 669.8" width="560.5" zoomAndPan="magnify"><g id="change1_1"><path d="M558.1,561.1c-3-28.6-24.6-17.1-31.9-39.2c2-5.4,8.6-6.7,11.4-11.7c2.8-4,3.9-9.9,1.3-14.2c-3.2-4.4-8.8-5.4-13.6-7 c-7.2-1.2-13.4-6.6-17.2-12.7c-16.5-24.8-16.9-3.5-25.1-7.4c-5.5-2-7.1-7.4-8.7-12.5c-1.6-4.6-3.6-9.2-3.3-14.2 c1-11.2-0.4-22.5-8.6-30.8c-5.8-7.5-8.1-6.8-16.7-7.1c-5.8-0.9-10.7-4.3-14.3-8.8c-5.6-6.1-10-12.4-14.9-19.1 c-4.1-5.5-7.5-11.4-10.2-17.7c-2.4-5.3-4.5-10.9-8.2-15.5c-3-3.6-5.1-8.5-10-9.6c-6.1-1.9-11.8-5.8-15.4-11.1 c-8-8.9,3.2-22.6-12.7-32.3c-4.4-1.9-9.1-2.8-13.8-3.7c-5.8-1-11.1-4-15-8.5c-3.9-4.3-8.3-8.3-12.9-11.9c-6.5-5.1-14.5-7.4-22.2-10 c-6.1-1.4-12.3-3.4-17.4-7.2c3.7-2,8.7-1.7,11.7-5c1.6-2,3-5.2,3.1-8.1c0.6-2.2,0.3-5.7-2-5.5c-1.4-0.7-2.6-2-3.2-3.5 c3.1-5.9,11.6-7.6,17.4-4.8c5,2.2,7.7,7.4,12.6,9.6c5.7,2.1,10.8,0.9,14.6-3.9c3.4-4.1,6.8-8.2,10.5-12c2.3-2.8,3.4-6.4,5.6-9.2 c9-7,12.9-20.2,2.3-27.8c-3.3-2.2-7.6-1.7-11.3-3.2c-2.1-1-3.7-2.7-5.9-3.5c-5.1-2.4-11.7-0.2-15.9-4.5c3.2-3.8,9.1-4,12.1-8 c5.8-11.2-5.7-17.9-13.6-23.2c-4.8-6-10.5-11.5-18.3-13.1c-9-2.2-16.7-1.7-24.8,3c-9.4,3.9-12,18.3-23.6,17.5 c-1.3-0.2-2.3-1.1-3.2-2c-5-7.3-12.6-3.1-19.3-9.9c-9.3-6.3-9.4-7.9-13.8-17.5c-2.9-3.6-7.5-5.9-8.6-10.7c-3-7.7-0.6-14.5,3.8-21 c3.2-6.8,5.9-15,2.6-22.3c-1.9-3.2-5.8-4.8-9.3-5.5c-7.9,0.2-5.8,15.3-16.7-0.1c-5.8-18.7-12.2-22.2-25.9-34.8 c-6.4-3.7-9.6-13.1-16.9-14.5C132.2,6,135.6,1,128.2,0c-11.4,2.4-14.3,21.1-14.3,31c-1.3,20.3,9.4,14.8,10.7,32.5 c1.4,8.9-4.5,17.3-3.1,26.1c0.9,2.7,2.7,5,3.8,7.6c2.6,4.1-2.9,5.7-5.9,3.8c-2.7-1.4-5.1-3.6-8.3-3.4c-7.4,0.7-15.5,7.3-22.5,2.2 c0.5-5.7,2.8-11.5,0.9-17.4c-0.8-3-1.6-6.9-4.8-8.2c-10.6-1.5-24,10.4-31.5,17.3c-6,7.9-16.6,13.2-17.9,23.8 c-1,3.4,0.8,7.6-1.2,10.5c-3.5,4.9-7.9,3.2-12.6,5c-9.3,5.2-17.1,13.5-20.4,23.8c-1.4,7.8-2.5,17.6,3,24c4.8,4.1,9.6-1.5,14.3-2.6 c4.5-0.6,9.9,2.2,10.5,7c2,7.9-2.4,14.9-4,22.3c-3.8,30.9,5.3,40.5,35,27.8c6.2-2.4,13.6-4.1,20.1-1.7c3.2,4.8,4.6,11.1,5.4,16.8 c0.8,10.6,0.7,21.8-3.5,31.8c-1.7,8.8-6.1,16.4-11.4,23.4c-2.9,5.5-4.7,12.8-2.4,18.8c3.4,6.5,4.4,15,1,21.6 c-3.2,4.8-7.1,9.2-9.3,14.7c-3.5,9.4-4.9,22.4,3,30c5.9,4.2,11.6-1.5,16.8-4c10.2-3.7,18.1-11.5,25.5-19.2 c6.7-5,12.4-11.1,19.3-15.8c4.8-1.3,9.7-2.9,14.7-2.9c4.6,0.1,9,1.3,13.3,2.9c3.5,0.9,7.2,1.8,10.1,4.2c3.5,2.8,4.3,7.9,8.2,10.3 c6.7,3.8,14.3,0.3,20.2-3.5c6-4,12.7-6.6,19-10.2c11.2-5.5,14.6-14.8,20.5-24.7c12.9-7.9,29.4-2.4,42.3,3 c14.1,8.8,24.4,22.5,34.2,35.8c15.1,22.8,42,22.9,30.3,57.6c-3.4,11.9-6,24.2-3.9,36.6c3.8,14.7,9.6,30.2,21.2,40.5 c7.5,6.7,18.9,5.2,26.6,12c2.3,1.7,2.4,4.8,3.5,7.2c2.4,4.7,7.1,7.8,9.8,12.4c6.1,14.8,5.9,31.6,5.6,47.5 c-1.3,11.9-3.8,27.5-12.7,36.1c-3.2,2.6-6.3,5.3-9.9,7.3c-1.5,0.8-3,1.7-3.7,3.3c-4.9,9.6,1.4,21,10.1,25.9 c6.4,3.6,14.2,3.2,21.3,4.6c8.5,1.3,14.7,7.8,22.3,11c11.3,3.4,22.1-2.3,19.8-15.2c0-6.7-3.8-12-8.2-16.7c-0.3-0.3-0.6-0.6-1-0.9 c2.7-0.2,5.3,0.1,8.2,0.3c6.6-0.3,12.5-4.4,17.7-8.1c8.1-7.1,12.6-4.8,19.5,2.3c2.5,2,5.2,3.9,8.1,5.1c3,0.7,6.1,1.2,9.2,1.6 c6.5-0.2,12.6-3.5,18.3-6.2c4.3-2.6,7.6-6.4,11.6-9.4c2.4-2.2,5.6-3.2,8.1-5.2c7-6.5,12.2-16.5,9.8-26.2c-0.3-2.2-2.4-4.6-1.4-6.7 C554.1,575.4,559.1,571,558.1,561.1z M536.6,501.9c-2.3,6.9-11.3,8.2-13.3,15.4c-2.8,6.3,1.2,13.2,4.6,18.5 c4.7,6.9,13,9.1,19.7,13.2c3.8,3,5.9,7.7,6.7,12.4c1.2,6.4-5,9.2-8.6,13.4c-0.1-0.1-0.3-0.2-0.5-0.2c-2.3-0.9-3.8-2.9-5-5 c-1.6-2.1-3.5-4.1-6-5.1c-3.3-1-7-1.1-10-3.1c-6.4-3.1-13.8-4.1-20.7-2.2c-2.8,0.6-5.5,0.2-8.3,0c-5.1-0.2-10,2-12.7,6.4 c-1,1.3-5.8,2.8-6.2,0.5c0.3-3.8,1-8.1-2.3-10.9c-2.4-2.2-5.4-3.5-8.5-4.5c-3.2-1.1-6.3-2.4-9.7-2.7c-0.1-0.1-0.2-0.2-0.3-0.3 c0.4-1.4,0.9-2.8,2-4c3.3-3.2,7.9-5.4,12.4-6.2c4.1,1.6,7.2-0.5,10.2-3.2c4.4-4,5.7-8.7,6.1-14.4c0.2-1.9,0.9-3.6,1.5-5.3 c1.1-4.2,2.9-8.9,7.1-11c3.9-2.2,8-3.7,12.2-5.1c2.9-1.1,5.6-3,7.5-5.5c0.2-0.2,0.3-0.5,0.4-0.7C521.3,497.5,530.8,496,536.6,501.9z M284.4,226.5c0.1,3.7,1.7,7.6,4.7,9.9c-2.4,3.9-8.6,2.8-12,5.6c-3.1,2.7-3.5,7.6-1.9,11.2c5.6,7.5,16,8.4,24.2,11.4 c1.4,0.4,2.7,0.9,4.1,1.4c-1.2,6.3-3.2,12.5-7.8,17.3c-3.3,4.3-6.7,3.6-10.6,0.6c-2.9-1.6-6.4-3-9.7-1.8c-5.6,3.1-7.5,3.5-13-0.1 c-3.1-1.5-6-5.2-9.8-4.6c-1.4,0.2-2.5,0.7-3.5,1.5c-0.3-0.5-0.7-1-1-1.4c-2.2-2.6-4.4-5.2-6.6-7.8c-3.7-4.1-8.4-8.2-14-9.1 c-5.4,0.1-10.8,0.4-16-1.3c-2.2-1-4.3-2.2-6.4-3.3c-2.7-1.6-5.5-3.2-8-5.1c-2.2-1.3-4.4-3-5.3-5.5c-2.6-8.5-0.6-10.6,5-16.6 c7.2-8.4,18.7-12.8,23.7-23c0.3,0.2,0.5,0.2,0.8,0.1c0.9-0.2,1.8,0,2.7,0c2.6,0.3,5.1,1.1,7.4,2.3c2.1,0.7,4.2,1.3,6.1,2.2 c4.3,2,9.2,0.8,13.1-1.6c4-2.2,6.8-5.9,10.3-8.8c1.7-0.8,3.4-1.6,5.2-2.2c2.6-0.3,6,0.3,7.3,2.9c0.9,3.7-0.1,8.6,3.6,11.1 c2.7,1.4,6.2,0.7,9-0.1c3.6-1.3,7-5.5,11.1-3.5c0.2,1.6-0.2,3.2-0.3,4.8C290.4,214.7,284.6,219.6,284.4,226.5z M252.8,150.9 c5.7,0,9.4-4.8,12.8-8.9c7.7-11.5,21.3-15.1,34.2-11c6.1,1.7,10.8,6.1,14.6,11.1c4.3,4.2,10.7,6,13.8,11.4c-2.6,2.4-6.4,3-9.2,5.2 c-4.9,3-5.7,9.9-2.8,14.6c4.3,6,12.5,3.4,18.5,6.3c4.2,3.9,9.8,3.9,15,5.6c3,1.8,6,5.2,3.2,8.5c-2.1,3.3-5.8,5.3-7.5,9 c-1.9,3.9-4.3,7.6-7.6,10.5c-4.7,4.8-8.6,13.9-16.6,11.4c-2.4-0.4-4.4-1.7-5.9-3.5c-3.5-3.4-7.4-6.7-12.2-7.8 c-1-0.2-1.9-0.3-2.9-0.3c0.2-4-0.5-8.6-4.9-9.6c-3.1-0.9-6.1,1.2-8.7,2.8c-2.8,1.6-6.4,2.3-9.5,1.5c-0.4-4.1-0.5-8.6-3.7-11.7 c-2.7-2.6-7.1-3.9-10.6-2.1c-1.6,0.7-3.2,1.2-4.6,2.2c-2.8,2.8-5.5,5.8-8.8,7.9c-3.5,2.1-7.7,3.6-11.7,2.2c-2.1-0.9-4.2-1.7-6.3-2.3 c-2-0.8-3.9-1.9-6.1-2.2c-0.9-0.2-1.9-0.4-2.9-0.5c1.7-5.7,1.2-11.9,2.5-17.7c0.5-2,2-3.5,3-5.2c1.7-2.8,2.1-6.3,1.6-9.5 c-0.5-3.1-2.1-5.9-2.3-9c1.2-5.8,2.5-11.7,4.4-17.3c0-0.1,0.1-0.2,0.1-0.4c3.5,2.1,8,1.1,11.4,3.4 C245.6,148.6,248.5,152.2,252.8,150.9z M212.6,121.9c2,8.4,8.9,13.7,15.8,18.2c-0.7,2.2-1.2,4.5-1.7,6.8c-1.2,5.1-3.7,10.5-1.6,15.6 c0.5,2.7,2,5.2,1.6,8c-0.3,3.7-3.6,6-4.5,9.4c-2.2,10-0.2,19.2-7.9,27.5c-3.6,4.4-8.6,7.2-12.9,10.8c-4.5,3.7-8.7,8-12,12.8 c-2.9,5-1.3,11.3,0.6,16.4c-3.9,3-9,6.6-13.8,4c-1.1-0.8-1.5-2.1-2.2-3.2c-1.4-3.2-4.7-6.1-7.8-7.8c-2.3-1.1-5-1.2-7.4-1.9 c-2.8-0.7-5.9-1.5-8.7-0.1c-2.6,1.1-5.7,2.3-7.2,4.8c-0.6,1.5-0.5,3.1-0.6,4.7c-0.2,2-1.3,3.7-1.9,5.6c-2.8,9.6-7,10.1-15.7,12.7 c-0.4,0.1-0.8,0.1-1.2,0.1c0.1-0.6,0.2-1.2,0.3-1.9c0.2-1.8,0-3.6,0.2-5.5c0.2-4,1-8.3,3.3-11.7c2.8-5.4,1.8-11.8,0.1-17.3 c0.1-1.5,0.6-2.8,1.1-4.2c0.1,0,0.1-0.1,0.2-0.1c0.3-0.2,0.4-0.5,0.5-0.8c2.1-2.5,4.9-4.4,7.2-6.8c3.3-2.9,6.4-6,9.5-9 c2.9-2.6,5.9-5.4,8-8.8c2.1-3.5,0.2-7.2-0.6-10.6c0.9-4.4,1-8,1.4-12.5c-0.1-3.7-0.2-7.4,0-11.1c1.1-4.1,2.1-8.2,4-12 c2.5-5.5,7.3-10.9,6.1-17.4c-0.3-2.3-1.3-4.4-1.8-6.6c-0.4-1.5-1.2-3.4-0.2-4.8c0.2-0.1,0.4-0.2,0.5-0.4c2.4,0.5,4.9,0.9,7.1,1.8 c1.5,1.7,1.9,4.4,4.2,5.3c2.6,1,5.4-0.1,8-0.6c6.2-1.1,11-6.5,11.9-12.7c0.7-2.7,3.1-4.4,5.5-5.5c1.3-0.7,2.5-1.6,3.9-2.2 c0.6,1.1,1.2,2.1,1.8,3.1C207.6,117,211.1,118.7,212.6,121.9z M125,86.3c2.4-9.8,5-19.9,2.4-29.9c-0.9-5.8-3.3-11.1-7.8-15 c-4.3-6.9-1.7-22.1,2.5-28.8c1.5-2.8,4.5-6.3,8-4.7c2.3,1.4,3.8,4.1,6.7,4.6c8.3-0.3,9.5,1.4,14.4,7.5c5.9,6,12.3,11.5,18.7,17 c3.8,3.5,7.2,8,9.3,12.8c2.2,6.7,6.7,20.6,16,18.6c4.7-2.5,4.2-9.2,11-4.9c7.6,2.8-0.4,14.3-2.9,18.9c-3.7,7.3-4.1,16.3-1.5,24.1 c-1.6,0.7-3,1.9-4.6,2.5c-2.5,1.2-4.7,3.2-5.5,5.9c-0.5,2.9-1.6,5.7-3.6,7.9c-2.3,2.6-5.6,3.7-8.9,4.4c-1.7,0.3-3.4,0.8-5.1,0.4 c-0.4-0.1-0.6-0.5-0.8-0.9c-0.9-1.7-1.8-3.6-3.6-4.6c-2.1-1-4.6-1.2-6.8-1.8c-2.6-0.5-4.7-1.5-7.3-2.1c-3.4-0.5-6.5-1.5-9.3-3.6 c-2.3-1.4-4.5-2.9-6.7-4.4c-1.6-1.3-2.6-3.1-4.1-4.4c-1.8-1.5-3.8-2.7-5.8-3.7C130.8,96.6,127.8,91.1,125,86.3z M128.4,106 c0.1,0,0.2,0,0.3,0.1c1.3,0.5,2.6,1.3,3.8,2c2.1,1.1,3.7,2.9,5.2,4.8c2.2,2.4,5.1,3.9,7.8,5.7c2.1,1.3,4.2,2.7,6.5,3.6 c2.4,0.5,4.8,1,7.2,1.7c-0.4,3.3,1.1,6.7,1.9,9.8c1.6,3.6-0.3,7.4-2,10.5c-3,5.1-5.5,10.6-6.9,16.4c-1.2,3.5-0.8,7.2-0.8,10.9 c0.3,3.6-0.3,7.5-0.5,11.1c-0.2,1.8-1.1,3.7-0.8,5.6c0,2.3,1.5,4.3,1.6,6.5c-0.4,2.6-2.6,4.4-4.3,6.3c-2.4,2.6-5.3,4.7-7.6,7.3 c-4.3,4.1-8.8,8-13.1,12.2c-0.1,0.1-0.2,0.3-0.3,0.4c-0.6-1.1-0.5-2.4-0.8-3.6c-0.8-3-0.6-6-1.3-9c-0.9-3.1-2.7-7.4-6.5-7.4 c-2.5,0.2-4.8,1.5-7.2,2.2c-7.5,2.2-15.3,3.6-23.2,3.2c-1.6-0.1-3-0.7-4.5-1.3c-3.5-1.2-7.2-2.1-10.8-2.1c-1.9-0.1-3.7,0.1-5.5,0.6 c-3.6,0.8-7.3,0.2-10.8-0.5c-1-0.2-1.9-0.5-2.9-0.8c0.2-0.2,0.3-0.3,0.5-0.5c1.2-1.4,2.7-2.4,4-3.6c1.2-1.4,2.8-2.3,4.6-2.6 c4.2-0.7,8.5-0.7,12.8-1c3.6-0.3,7.7-0.9,10-4.1c1.6-3,2.3-8.1,1.3-12.4c1.1-0.4,2.2-1,3.2-1.4c3.1-1.6,6.3-3.1,9.2-5.2 c7.5-4,12.8-12.9,10.6-21.4c-0.4-1.3-1-2.5-1.9-3.5c-1.4-2.1-5.2-2.6-4.7-5.7c0.4-2.9,2.3-5.7,4.7-7.4c2-1.2,4.1-2.2,6-3.6 c3-2.1,4.9-5.2,6.5-8.4c2.5-4,5.5-7.8,5.6-12.7C126.6,108.1,127.7,107.2,128.4,106z M52,101.6c3.6-5.2,28.2-25.9,33.3-18.5 c3,6.2-1.6,12.3-0.4,18.7c1.2,10.8,15.2,7.3,22,4.3c6-3.4,9.6,2.4,14.9,3.1c-0.8,2.8-2.8,5-4.3,7.5c-1.2,2.2-2.3,4.4-3.9,6.3 c-2.8,3.5-7.7,4.4-10.6,7.7c-3.8,3.9-4.7,10.2-1.5,14.8c1.2,2,3.5,2.7,4.9,4.4c0.5,2.3,0.1,4.8-0.9,7c-1,1.7-1.8,3.5-3,5 c-1.8,2.1-4.2,3.6-6.5,5.1c-3.7,2.5-7.8,4.5-12,6.2c-0.6-0.7-1.2-1.3-2-1.8c-2.7-1.4-5.8-1-8.8-1.4c-3.2-0.3-4.8-2.5-5.8-5.3 c-1.1-2.1-1.8-3.8-3.3-6c-0.7-0.9-1.5-1.8-2.5-2.3c-2.4-0.9-6.2-0.6-7.1-3.6c-2.3-8-5.5-16.2-11.4-22.1c-1.5-1.2-3.4-1.7-5.2-2.1 c0.9-3.5,0.4-7.5,0.8-11.1C40.5,110.6,47.6,106.7,52,101.6z M19.3,168.6c-4.8-0.1-8.6,6-13.4,3.6c0.1,0-0.1-0.1-0.3-0.3 c-0.1,0-0.4-0.3-0.6-0.7c-5.1-13.7,6.3-26.8,17.8-33.1c4.3-0.8,9-0.6,12.1-4.3c0.4-0.4,0.8-0.7,1.1-1.1c2.2,0.8,4.7,0.7,6.8,2 c1.3,0.7,1.9,2.2,2.8,3.4c1.3,1.9,2.6,3.8,3.5,5.9c2.5,4.6,2.4,11.8,7.2,15.1c1,0.7,2.1,1.2,3.3,1.5c1.3,0.3,3.1,0.1,3.8,1.6 c2.7,4.3,3.7,10.4,9.1,12.3c3,1.1,6.5,0.4,9.6,1.5c2.8,0.7,1.3,7,1,9.2c-2.6,6.3-12.5,4.4-18,5.2c-3.5,0.4-7.4,0.6-9.8,3.6 c-5,4.4-9.8,9.8-16.6,11.2c-0.1-5.3,0.4-12.1-5.8-13.1C34.2,180.7,32.1,169.3,19.3,168.6z M93.9,368.3c-6.6,5.9-15.1,8.4-22.4,13.3 c-11.5,5.4-12.3-11.2-8.8-18.2c3.5-8.1,11.7-14,11.9-23.4c1-7.6,0-15.5-3.6-22.4c-0.6-6.9,5.1-12,8.4-17.5 c2.3-5.3,4.7-10.6,5.8-16.3c6.5-17.6,6.3-41.1-2.5-57.9c-3.8-4.3-10.9-3-16-2.3c-8.3,1.5-15.6,6.6-24.1,7.4 c-4.7,0.6-11.2-0.2-13.6-5c-1.4-5.9-1-12.2-0.5-18.2c1.2-3.1,2.5-7.1,3.4-11.4c1.1,0.1,2.2,0.2,3.3,0.6c0.6,4.2-0.8,10.5,4,12.6 c4-0.3,7.5-2.5,10.6-5c1.5,1.8,4.4,2.4,6.6,3c2.2,0.5,4.4,0.9,6.6,1c4.3,0.1,8.3-1.5,12.8-0.8c4.1,0.4,7.8,2.1,11.7,3.1 c2.9,0.3,5.8,0.2,8.7,0.1c5.5-0.7,11-1.7,16.3-3.4c8.8-3.4,8.7-2.9,9.5,6.1c0.7,3.3,0.9,7.2,2.8,10c-0.1,0.2-0.1,0.4-0.2,0.6 c-0.3,1.2-0.8,2.5-0.7,3.9c0.3,2.4,1.3,4.6,1.6,7c0.3,2.6,0.1,5.3-1,7.7c-1.3,2.1-2.4,4.4-3.1,6.8c-0.7,3.9-1,7.8-1,11.8 c-0.3,2.4-0.8,4.8-0.8,7.3c0,0,0,0,0-0.1c0,0,0-0.1,0-0.1c-0.1,3.8,0.6,7.6,2.1,11.2c0.5,2.2,0.7,4.5,0.8,6.8c0,5.7-3.1,10.9-5.2,16 c-2.1,4.9-4,10.1-8.1,13.6c-2.9,3.1-6.1,5.9-9.4,8.6c-2.4,2.6-5.2,4.9-6.6,8.2c-1.9,3.3-2.3,7.2-2.3,10.9c-0.4,3.3,0,6.7,1.3,9.9 c1.6,3.3,4.3,6.3,6.8,9.1C97.6,364.6,95.8,366.5,93.9,368.3z M123.5,342.5c-4.7,2.7-8.4,7-12.6,10.3c-3.2,2.4-6.1,5-9,7.7 c-0.4-0.6-0.9-1-1.5-0.9c-1.9-2.5-4.6-4.7-5.9-7.6c-0.7-1.9-0.5-4-0.3-6c-0.1-2.3,0.3-4.5,0.9-6.7c2.3-7,9-10.8,13.9-15.7 c2.3-2.3,4.8-4.5,6.7-7.1c2.8-4.5,4.5-9.5,6.7-14.3c3.5-7.4,4.4-13.2,2.7-21.2c-0.7-2.8-2.1-5.4-2.1-8.4c0-0.5,0-1,0-1.5 c0.2,0.1,0.3,0.1,0.5,0.2c2.3,0.6,4.6-0.7,6.8-1.3c3-0.8,6-1.9,8.3-4.1c3.2-3.1,3.9-7.7,5.6-11.7c1.2-2.3,0.4-5.1,1.4-7.3 c2.2-2.1,5.1-3.3,7.9-4.1c2-0.2,4.1,0.3,6,0.8c2.5,0.7,5.1,0.8,7.4,2c1.8,1.3,3.9,2.5,4.8,4.5c2.8,6.5,7.6,9.3,14.4,5.8 c1.8-0.8,3.3-1.9,4.8-3c0.5-0.3,1.1-0.6,1.5-1c2,2.1,4.5,3.8,6.9,5.4c3,1.8,6,3.8,9.3,5.3c4.6,3,10.3,3.2,15.6,3.2 c1.5,0,3.1-0.1,4.6-0.1c2.1,0.2,3.9,1.5,5.7,2.5c5.2,3.3,8.6,8.6,12.6,13.1c-1.8,2.8-2.3,6.6-1.7,9.6c1.4,4.7,0.5,7.8-2.5,11.6 c-1.7,1.7-3.9,2.7-6.2,3.2c-3.1,0.6-6.2,2-9.5,1.8c-2.3-0.1-4.6-0.9-6.9-1.3c-4.8-0.4-9.7-0.9-14.6-0.8c-4.3,0.2-10.2,3-9.2,8.1 c0.5,3.2,3.7,5.1,4.1,8.3c0,1.2,0.1,2.4,0.3,3.4c-5.5,2-10.8,5.3-16.8,4.6c-1.6,0-3.2,0.2-4.9,0.1c-2.1-0.2-3.9-1.2-5.8-1.8 c-2.4-0.8-4.9-1.2-7-2.7c-2.5-0.8-4.2-2.6-6-4.4c-3.8-3.4-11.8-7.4-16.6-4.4c-3.7,2.4-3,7.3-3.5,11.1c-0.8,4-0.4,8-1.1,12 C134,339.4,128.6,340.7,123.5,342.5z M199.8,347.8c-5.3,2.6-10.1,6-15.3,8.7c-4.3,2.1-10.7,3.1-14.2-0.8c-1.7-2.3-2.9-5.4-5-7.5 c-4-4.5-10.2-5.1-15.6-7.1c-2.3-0.9-4.7-1.4-7.1-1.6c0.1-1.2,0.1-2.3,0.2-2.8c0.2-4.5,0.7-8.9,1.3-13.4c2.6-7,13.2-1.9,16.8,1.8 c1.7,2,3.8,3.5,6.2,4.4c2,1.3,4.3,1.9,6.6,2.6c1.8,0.6,3.9,1.7,5.9,2c3.4,0.4,6.8,0.1,10.2,0.1c3.6-0.6,6.8-2.2,10.2-3.5 c1-0.4,2.1-0.8,3.1-1.2c3.3,4.2,9.6,4.9,15.8,5.6C213.8,341,206.9,344.8,199.8,347.8z M268.6,319.4c-11.6-4.3-24.5-7.3-36.4-2.5 c-5.7,2.2-7,8.6-9.8,13.5c-0.1,0.2-0.3,0.5-0.4,0.7c-3.6-0.6-7.3-0.6-10.8-1.5c-2.4-0.4-4.9-1-6.7-2.7c-1-0.9-0.5-2.4-0.7-3.6 c-0.3-3.4-1.9-6.5-4.1-9.1c0.5-1.7,2.1-2.4,3.6-3c3-1.6,6.6-0.9,9.9-1c2.5,0.3,5.2,0.4,7.8,0.6c2.8,0.4,5.5,1.4,8.4,1.4 c3,0.1,5.7-1.1,8.6-1.7c1.8-0.3,3.5-1,5.1-1.9c1.9-0.9,3-2.6,4.1-4.3c1.5-2,2.2-4.5,2.1-7c0.1-2.6-1-5-0.9-7.5 c0.4-3.9,3.4-8.4,7.9-7.2c5.2,2.6,10.2,8.4,16.5,6.7c3.7-1.6,5.9-3.7,10.1-1.9c2.3,0.7,4.1,2.5,6.3,3.5c3,1.3,6.3,0.5,8.3-2.1 c6.3-6.3,7.7-13.2,9.5-21.2c4.7,1.9,9.1,4.4,12.9,7.7c15.1,13.5,12.1,16.2,33.4,20.4c19.6,3.5,8.1,19,15.6,30.6 c1.5,2.4,3.2,4.6,5.2,6.5c-3.4,5.4-6,11.9-12,14.7c-2,1-4.2,1.8-6.4,1.2c-2.9-1.3-6-2.1-8.7-3.8c-2.4-2-5-3.8-7.9-5.1 c-2.8-2.2-5.4-4.8-8.8-6c-4.8-1.8-11.7-3.2-15.6,1.1c-2.1,2.8-3,6.3-4.7,9.4c-1.5,2.8-3.8,4.9-6.3,6.9c-4.2-5.7-8.4-11.3-13.4-16.2 C283.5,329,277.2,322.2,268.6,319.4z M327.2,376.1c-8.6-5.4-14.8-13.2-20.8-21.2c1.5-1.2,2.9-2.5,4.1-4c2.4-3.1,3.6-7,5.4-10.4 c3.3-6.2,12.8-3.5,17.6-0.6c2.2,1.3,3.8,3.3,5.9,4.6c2.5,1.1,4.7,2.5,6.7,4.3c2.7,1.9,5.9,3.1,9,4.1c1,0.6,2,0.7,3.2,0.8 c10-0.4,14.2-10.6,19-18c3.5,2.7,7.6,4.8,11.9,6c2.2,1.1,3.4,3.2,4.7,5c1.6,2.2,3,3.6,4.4,6.1c4,6.8,6.3,14.7,10.5,21.4 c4.8,8,10.4,14.8,16,22.3c10.8,13.3,13.4,14.8,30.2,16.1c5.4,4.3,8.5,8.1,10.3,11.6c-2.6,0-5.1,0.7-7.6,0.8c-2.3,0.1-4.6,0-6.8-0.8 c-1.6-0.7-3-1.9-4.7-2.4c-3.2-0.9-6.5-1.4-9.8-0.8c-2.7,0.5-5.3,1.5-8.1,1.1c-2.7-0.5-5.3-1.5-8-1.7c-5.3-0.5-12.4-4.3-16.8,0.2 c-2.2,3-3.2,7.4-7.9,6.4c-3.4-0.5-5.8-3.4-8.9-4.6c-4.6-1.6-9.6-1.9-14.4-2.5c-3.4-0.6-6.9-0.4-10.3-0.8c-3.4-0.7-6.9-0.4-10.2,0.7 c-1,0.3-2.2,0.7-3,1.5c-1.8,2.4-1.1,5.8-2.6,8.4c-1.2,2.5-4.7,4.1-7.1,2.5c1.7-6.7,3.7-13.3,4.7-20 C345.5,398.1,339.1,384,327.2,376.1z M360.2,495.3c-13.7-8.3-19.6-25-23.5-39.8c-1-6.6-0.2-13,1.3-19.3c0.3,0.2,0.6,0.4,0.9,0.6 c2.7,1.9,6.5,1.1,8.5-1.5c2.1-2.4,2.4-5.7,3-8.7c0.5-1.5,2.4-1.6,3.8-2.1c2.5-0.8,5.1-0.9,7.7-0.5c8.2,0.9,16.8,0.9,24.9,3.2 c3.9,1.7,7.2,5.6,11.9,4.9c5.2-0.2,5-7.7,9.9-8.5c3.6-0.2,7.2,0.8,10.7,1.6c3.6,0.3,7.1,1.6,10.7,2.1c4.5,0.2,8.8-2.3,13.4-1.2 c2.3,0.3,4.6,0.9,6.5,2.3c4.5,2.5,10,1.6,14.8,0.9c0.7-0.1,1.5-0.1,2.2-0.1c1.8,8.3-1.5,16.2,3.1,28.1c2.4,5.9,3.4,13.4,9,17.2 c-0.5,0.5-0.9,1.1-1.2,1.6c-1.4,2.8-1.1,6.2-2.6,9c-2.8,4.3-9,5.1-13.6,6.5c-3.9,0.5-8.2,1.8-11.9-0.1c-1.1-0.7-1.8-1.8-2.7-2.7 c-2-1.8-5-2.8-7.6-1.8c-10.8,5.4,0.3,13.2-4.2,17.3c-3,3.4-7.8,3.8-12,4.8c-5.1,0.5-10-1.5-14.7-3.4c-10.4-5.7-14.2-7.5-25.2-1.7 c-0.5-0.2-0.9-0.1-1.1,0C376.1,498.9,367.4,498,360.2,495.3z M388.8,515.4c-1.8-1.9-2.1-4.6-3.1-7c4.8-2.8,10.3-4.5,15.6-1.9 c6.2,2.9,12.3,6.7,19.4,7.3c2.4,0.4,4.9,0,7.2-0.7c4.3-0.9,9.2-2.6,11-7c1.2-3.7-1.1-7.3-1.6-10.8c0.5-1.9,2.7-3.4,4.6-3.8 c6.5-0.5,5.2,6.3,14.3,5.9c4-0.5,8-1,11.9-2.4c9.8-2.7,10-5.6,12.1-14.7c0.8-1.2,1.8-2.4,3-3.3c0.1-0.1,0.2-0.2,0.2-0.3 c1.4,0.4,2.9,0.5,4.3-0.3c3-1.1,5-6,8.5-4.4c5.5,2.9,8.5,8.6,11.8,13.6c1.2,1.4,2.5,2.6,3.9,3.8c-3.5,3.9-8.7,4.9-13.3,6.7 c-5.4,2.3-10.3,5-12.2,10.9c-0.8,2.8-1.9,5.5-2.6,8.3c-0.8,5.5-0.7,9.8-5.1,13.9c-2,1.8-4.4,4.2-7.3,3.9c-1.1-0.2-2.2-0.7-3.4-0.5 c-4.1,1.2-8.3,2.9-11.5,5.8c-2.2,1.8-3.2,4.6-3.9,7.3c-0.5,1.8-0.1,3.9-1.5,5.4c-3.2,3.1-11.8,7.1-14.8,2.1 c-2.5-3.6-5.1-8.4-9.6-9.9c-3.2-1.2-6.6-0.9-9.9-0.9c-2.3-0.1-4.6-0.1-6.8,0.6c-2.4,0.9-5,1-7.5,1.4 C400.7,533.4,397.4,522.8,388.8,515.4z M432.3,630.1c-0.1,0.6-0.2,1.2-0.2,1.8c-1.4,8.6,14.3,12.5,11.3,24.4 c-11.7,10.8-23.5-3.9-34.9-7.4c-11.3-2.5-26.8-1.2-32.1-14.1c-4.7-8.7,17.9-4.8,24.4-37.8c4.3-14.6,3.2-30,2.3-45 c-0.1-0.9-0.2-1.9-0.3-2.8c1.8-0.4,3.8-0.3,5.6-0.7c2.5-0.6,4.9-1.5,7.5-1.4c4.9,0.2,10.8-0.8,14.5,3c3.1,3.3,4.6,8.5,9.2,10 c4.8,0.8,11.9-1.9,14.4-6.3c0.2-0.5,0.3-0.9,0.4-1.4c0.6,0.2,1.4,0.3,2.3,0.4c2,0.2,4.5,0.9,6.5,1.7c3.6,1.3,7.6,2.2,10.5,5 c-0.3,3.3-0.8,6.8,1.1,9.7c0.6,1.1,1.5,2.4,2.8,2.7c2,0.4,4.3,0.1,6-1.1c0.1,0,0.1-0.1,0.2-0.2c0.2,0.2,0.3,0.3,0.5,0.5 c1.3,1.3,2.7,2.7,3.5,4.3c0.2,1.7,0.1,3.5-0.3,5.1c-0.9,2.8-2.6,5.2-4.4,7.5c-2,2.4-3.9,5-6.3,6.9c-2.5,2.3-6.2,3-8.1-0.4 c-1-2.2-0.8-4.7-1.2-7.1c-0.5-4-2.4-5.9-6.3-6.7c-5.1-1.5-11.5-0.7-14.8,3.8c-2.5,2.8-4.8,6.3-4.7,10.2c0.4,6.7,3.6,12.8,8.4,17.5 c2,3.7,2.9,8,4.2,12c-1.9,1-4,1.8-6.1,2.3C443.9,627.3,433.5,623.9,432.3,630.1z M532.9,610.1c-5.1,3-9,7.7-13.8,11 c-3.3,2.2-7,3.5-10.7,4.7c-2.7,1.2-5.6,2.2-8.6,1.7c-16.2-1-15.7-12.4-27.6-13.4c-3.5,0-6.3,2.7-9,4.6c-2.1,1.5-4.3,3-6.5,4.3 c-1.2-3.8-2.4-7.6-3.8-11.3c-1.5-4-5.7-6.2-7-10.3c-2.5-5.7-0.4-8.9,3.4-13.2c3.8-4.3,10.7-4,15.6-1.8c0.5,4.1,0.6,8.5,3.2,11.9 c4.2,5.7,9.3,3.2,13.2-1.2c5.2-5.7,10.8-12.2,9.5-20.5c-0.4-3.4-2.6-6-4.7-8.5c0.3-0.4,0.5-0.7,0.8-1c1.6-1.7,4-2.4,6.2-3 c4-0.7,8.1,0.7,12.2-0.3c4.7-1.2,9.7-1.2,14.4,0.1c3.2,0.9,6,2.7,9,3.7c2,0.7,4.2,0.7,6.2,1.4c3.5,1.3,4.7,5.2,7.2,7.6 c0.5,0.5,1,0.9,1.6,1.3c-0.3,0.9-0.5,1.9-0.4,3c-0.7,4.4,2.1,8.3,2.3,12.6C544.3,600.6,539.4,607.2,532.9,610.1z"/></g></svg>