<?xml version="1.0" encoding="UTF-8" standalone="no"?><svg xmlns="http://www.w3.org/2000/svg" xmlns:xlink="http://www.w3.org/1999/xlink" fill="#706a6a" height="863.9" preserveAspectRatio="xMidYMid meet" version="1" viewBox="-1.0 -3.4 428.8 863.9" width="428.8" zoomAndPan="magnify"><g id="change1_1"><path d="M411.7,579c6.7-4.4,5.4-13.7,4-20.6c-2.7-5.4-4.5-11.3-3.4-17.4c-0.2-8.7-3.7-16.9-7.1-24.8c-1.2-3.7-0.5-7.8-1.2-11.6 c-0.4-7.3-4.5-13.7-5.7-20.8c-1.1-6,0.7-12.2-1.3-18.1c-4.2-11.6-9.9-9-19.1-12.8c-5.7-4.1-11.2-8.5-14.6-14.9 c-3.3-4.8-5.2-10.6-6.5-16.3c-1.5-8.4-3-13.2-12.4-15c-6.5,0.6-13.3,4.2-18.4-2.2c8.9-12.2-18.7-22.2-25.9-28.1 c-3.3-3.1-7.3-5.3-10.1-8.9c-1.9-1.6-0.7-7.4-2.9-8.2c-2.4-2.9-7.7-2.7-11.7-2.8c-14,0.5-22.9-20.4-22.4-32.6 c-0.1-7.9,0.1-18.1-7.3-22.9c-5.5-3.2-12.2-4-18-6.7c-2.3-1.6-4.1-3.6-6.1-5.5c-6-7-10.5-15.2-14.3-23.6c-0.8-1.8-2-3.5-2.7-5.4 c0-2.8-0.3-5.7-0.4-8.5c0.2-5.1,4.9-8.2,7.9-11.9c3.8-5.1,3.9-11.7,4.5-17.7c0.6-3.5,2-6.9,3.3-10.2c2.8-7.4,11.4-6.7,17.3-9.9 c3.4-1.8,5.8-4.8,8.2-7.7c5.2-4.4,10.2-9.3,13.5-15.4c3.3-8.3-0.6-9.9,6.1-18.3c4.2-4.8,7.1-11.1,12.9-14.4c3.9-1,8-0.4,12-1 c8.6-2,12.4-11,14.9-18.6c4.4-2.5,9.8-3,14.7-4.2c6.1-1.6,12.9-1.2,18.2-5.2c3.6-2.2,5-6.9,4.5-10.9c-0.5-4.1-3.7-7.3-6.7-10 c-7-5.2-16.5-2.3-24.6-4.2c-16.7-2.1-23.5-19.5-33.5-15.9c-5.2,1.4-11.3,5.8-15.1-0.3c-1.3-1.5-0.5-3.4-0.5-5.1 c0.2-3.8-0.7-7.7-2.6-11c-6-8.8-0.1-4.5,9.1-14.2c2.5-2.2,2.9-5.7,2.9-8.9c-0.1-3.8-0.8-8.6-4.4-10.8c-7.5-4.1-16.1-4-24.4-4.3 c-5.5,0.5-10.8,0.5-16.1-1.3c-4.5-0.7-8.9-2.2-12.6-4.8c-2.8-1.4-4.8-3.8-7-5.9c-4.3-3.3-9.6-5-14-8.1c-11.1-4.5-23.7,1.2-32.2,8.6 c-5,3.4-5.8,10.1-10.5,13.8c-3.2,1.8-6.1,4.1-9.5,5.6c-7.6,3-17.9-2.7-23.8,4.8c-3.2,5.5-0.8,9.4-9.4,10.4 c-7.8-0.1-10.8-9.4-16.7-13.2c-2.6-1.6-5.8-1.8-8.7-2.2c-7.8-2.1-17.7-0.9-22.2,6.5c-1.6,5.1-0.6,10.8-6.5,13.6 c-8.2,1.7-18.2-8.1-24.2-12.7c-6.3-3.5-18.5-0.2-23.5,4.8C-0.4,48-1,60,1.1,68.2C3.9,76,12.9,78.6,18.4,84.1 c8.8,6.1,5.2,15.3,12.4,19c8.2,2.3,7.7-3.2,13-6.4c3.1-0.3,3.3,5.9,4.3,8.1c0.4,2.6-0.2,5.4-1.1,7.8c-1.5,3.5-4.2,6.6-5,10.4 c-1.4,5.8,0,13.1,5.3,16.5c3.7,1.9,7.2,4.3,10.8,6.4c3.7,1.6,7,3.7,10,6.5c8.3,5.6,19.9,9,29.2,4c3.5-2.3,6.2-5.9,10.1-7.7 c6.1-2,12.7,0.4,18,3.4c3,1.7,5.1,4.5,8.1,6.2c1.1,0.6,2.2,1,3.4,1.4c-4.2,2.1-8.2,3.3-10.1,9.6c-1.3,4.3-0.7,10.8,4.2,12.4 c3.1,0.7,6.1-1.2,9.2-1.8c9.3-4.6,3.9,3.5,12.8,8.7c3,1.7,6.7,2.4,8.8,5.4c-4.6,3.8-7.4,9.4-12.2,12.9c-3.6,2.8-7.4,5.2-12.1,3.7 c-6.5-0.5-17-5.7-22.2-0.5c-2.9,3.7-2.2,9.4-6.6,12.1c-2.3,1.5-5.6,1.7-7.1,4.3c-3,4.5-2.9,11.1,1,15.1c2.5,2.1,6.1,1.7,9.1,2.6 c13.8,1.5,16.5,12.9,26.8,19.3c4.6,2.4,9.8,3.8,14.8,5.1c4.9,0.6,9.8,1.1,14.4,3.3c2.4,1.1,6.2,0.8,7.3,3.7c-3.8,6-10,13.9-4.9,21 c2.5,3.1,5.4,6.1,8.5,8.6c3.1,2.1,6.9,1.3,10.3,1.8c4.7,1,8.3,4.8,10.2,9c-1.5,7.4,2.8,13.7,6.6,19.6c5.2,7.4,11.5,14.2,19.3,18.8 c3.4,2,6.2,5,9.8,6.6c3.3,1.5,7,1.8,10.2,3.5c8.5,3.9,7.3,9.9,7.1,17.8c0.5,4.8-0.2,9.7,0.7,14.5c1.3,8.1,9.5,18.2,16,7.9 c3.4-1.3,5.6,2.7,7.2,5.1c1.6,1.8,2.5,4.1,3.9,6c1.5,1.7,3.5,2.9,5.4,4.2c1.7,1,3.4,1.9,5.2,2.7c3.7,1.4,10.5-0.4,11.7,4.5 c-2.9,3.4-7.6,5.6-8.9,10.2c-4.4,12.3,7.8,21.2,17.9,25.1c6.1,3.6,6.6,11,6.1,17.4c-0.1,0.2-0.2,0.4-0.2,0.6 c-2.2,0.1-4.5-0.8-6.7,0.1c-4.4,2-6.6,7.4-6.2,12.1c2.4,8.8,5.9,9.7,4.1,20c-1.8,5-6,8.7-8,13.7c-1.3,3.5-2.1,7.2-2.6,10.8 c-2.3,15.8,13.6,19.3,11.5,39.3c-0.1,7.3-3.5,14-3.5,21.3c-0.6,6.1,2.5,11.6,3.1,17.5c0.8,7.1,0.7,14.6-1.9,21.4 c-1.3,2.6-4.6,3.1-7.1,3.9c-2,0.7-4,1.6-6.1,2.3c-4.8,2.2-8.3,6.4-13.2,8.3c-11.6,3-25.1-4.9-28.5,12.2c-0.1,8.4-5.7,9.2-12.8,8.2 c-10.5-2.3-21.9-2.1-24.6,10.6c-1.4,5.4-0.6,10.8,0.5,16.2c0.3,3.2,0.8,6.4,2.2,9.3c3.1,7.9,11,5.6,12.2,15 c-7.1,2.5-13.7-4-20.4-5.7c-6.8-1.3-13.8,0.5-20.4,1.8c-7.6,2.8-16.5-3.5-23,3.1c-3.3,3.7-5,8.6-9.6,11.1 c-6,4.6-14.6,5.3-19.5,11.4c-4.7,6.9-1.2,15.5,3.3,21.5c1.1,1.6,2.7,3.9,5.3,4c2.9-0.1,5.8-1.3,8.7-0.6c3.1,1.2,6.1,3.3,7.8,6.2 c-2.2,1.4-4.7,2.6-6.7,4.3c-3.4,4.8-2.9,11.5-2.7,17.2c0.1,4.8,0.1,9.6-0.2,14.4c0.5,5.5,0.8,10.9,0,16.4 c-0.8,4.8-0.5,9.6-1.2,14.4c-9.1,8.7-4.2,16.6,7.3,17.6c3.4,0.7,6.5-0.6,9.5-2.1c4.6-1.8,9.3-3.6,13.3-6.5 c4.4-3.3,6.5-8.6,9.5-13.1c2.2-2.7,4.5-5.4,6.7-8.2c6.3-6.4,13-13.4,22.1-15.3c2.2-0.3,5-0.2,7.3,0.1c2.2,0.1,4.5,1.1,6.5-0.2 c4.5-2.8,5-8.8,4-13.5c0.2-0.3,0.4-0.7,0.6-1.1c1.3,0,2.7-0.2,4,0.4c1.1,1,2.3,1.7,3.8,1.9c7.6,1.6,11.1-8.8,14.6-13.8 c3.9-6.6,11.9-20-0.2-22.6c5.7-1.2,8.3-7.7,7.6-13c-0.6-2.4-2.4-4.3-1.8-6.9c-0.1-2.4,0.6-3.9,3.1-3.8c4.3-0.3,8.7,0.7,11.7,4 c4.1,9.5,6.8,14.1,17.8,9.4c9.9-3.6,19.2-8.8,28.3-14.1c5.1-3.6,7.9-9.6,12.9-13.3c4.8-2.5,9.9-4.4,14.8-6.8 c5.1-1.1,8-5.4,11.7-8.7c4.9-3.3,10.3-5.8,15.7-8.1c11.3-3.1,23.4-9.8,26.6-21.9c1.4-4.8,5.5-8.6,4.9-14c-0.2-7.3-6.1-13.4-5.1-21 c7.2-4.5,9.5-12.1,4.8-19.5c-0.4-0.8-1-2-0.8-3.1c2.1-4.6,7.9-6.6,10.1-11.4C427.8,601.5,418.7,588.6,411.7,579z M409.4,573.2 c-2.9,3.9-2.1,9.6,0.5,13.4c4.2,4.7,10.9,15,9.9,21.3c-0.3,0.7-0.6,1.3-1.1,1.8c-4.5-0.6-9.2,0.1-13,2.8c-2.9,1.7-5.6,4.3-9,4.9 c-0.9,0.2-2,0.2-3,0c0-2.3-0.6-4.6-1.7-6.5c-2.9-4.9-9.9-4.7-13.1-9.3c0.7-2,2.4-3.3,4-4.6c2.3-1.6,4-3.8,4.6-6.6 c1-4.8-0.4-10.3-3.1-14.4c-1.2-2.4-3.7-3.2-5.8-4.4c0.8-1.4,2.4-2.2,3.9-2.7c1.2-0.6,2.6-1.2,3.8-2c0.9,1.5,2.6,2.3,4.3,2.7 c8,1.6,14.9-4.3,20.7-9c1,2.1,1.6,4.3,1.5,6.8C413.7,570.4,411.1,571.5,409.4,573.2z M371.7,678.2c-1.2,2.1-3.2,3.6-5.5,4.3 c-2.5,1.2-5.1,2.4-7.3,4.2c-3.1,1.8-3,5.8-4.8,8.4c-2.5,2.7-6.2,3.1-9.6,3.7c-3.5,0.6-6.9-1.1-9.9-2.8c-2.4-1.3-4.4-3-6.9-4.2 c-5.1-2-10.6-2.8-16.1-3c-3.6,0.2-7-1.7-9.8-3.8c-2.4-2-1.9-3.7-1.1-6.4c0.3-1,0.6-1.9,1-2.9c0,0,0.1,0,0.1,0 c6.6,0.4,10.3-2.5,14.5-7.2c1.2-1.1,2.8-1.4,4.5-1.7c3.9-0.9,6.7,0.6,9.7,2.9c3.1,2.3,7.5,2.7,10.8,0.7c3.1-1.2,5.1-4.6,3.9-7.8 c-0.8-2.7-3.4-4.1-5.2-5.9c-1.7-1.9-1-3.9,1.2-4.8c3.3-1.5,7-1.7,10.4-2.8c3.5-0.7,6.4-2.5,9.4-4.3c4.8-2.5,10.4-2.7,15.5-1.2 c0.4,0.1,1,0.4,1.4,0.2c0.3,1.9,0.7,3.9,1.3,5.7c-1.4,2.1-2.6,4.4-3.7,6.7c-1.5,3.1-2.6,6.5-2.5,10 C373.2,670.1,373,674.3,371.7,678.2z M379.3,628.8c-1.2,1.7-1.3,3.9-1.4,5.9c-0.2,2.1-0.3,4.3-0.2,6.5c0,0,0,0,0,0 c-6-2-12.8-1.6-18.3,1.8c-3.1,2.3-6.8,3.3-10.4,4.2c-1.6,0.4-3.4,0.6-5.1,1.1c-0.1-0.4-0.2-0.7-0.5-0.8c-0.9-2.1-2.9-3.5-4.7-4.8 c-2.4-2.1-4.4-5.3-3.9-8.6c0.7-4.6,1.3-9.5-1.3-13.6c-4.2-7.2-13.5-8.8-21.1-7.5c-0.9-4.9-2.4-9.7-3.1-14.6c0-5.1,1.9-9.9,2.9-14.9 c0-0.3,0.1-0.6,0.1-0.9c6.5-1.8,13.2-3.2,19.9-3.8c11.5-0.1,21.2,1.8,28.2,11.7c3,4,5.4,8.8,10.2,10.9c1.9,0.8,3.8,0.5,5.7,0.1 c0.2,1.1,0.7,2.1,1.3,3c2.6,4.1,7.4,5.7,11.5,7.7c3.5,1.8,1.6,6.8-0.6,8.9c-1.6,1.9-3.3,3.8-5.6,4.9 C381.6,626.8,380,627.3,379.3,628.8z M408.2,539.3c0.6,3.1-0.6,6.4,0,9.6c0.5,3.4,0.9,6.1,2,9.5c0.1,0.2,0.2,0.3,0.3,0.5 c-6.2,5.1-15.2,12.2-22.6,7c0.7-0.7,1.2-1.6,1.4-2.7c1-4.2-0.9-8.5-2.1-12.5c-1.4-3.6-2.8-7.2-4.9-10.5c-1.6-2.3-3-4.7-4.2-7.3 c-2.3-4.8-5-9.5-6-14.8c-0.3-0.8-0.6-1.6-0.8-2.4c0.1-0.1,0.1-0.1,0.2-0.2c1.2-1.2,2.4-2.2,3.6-3.3c6.9-5.8,16.4-6.2,25-5.4 c0.5,4.9,0.2,9.9,1.9,14.6C404.7,527.3,406.8,532.8,408.2,539.3z M393.9,480.2c0,8.2,2.9,15.3,5.6,23.1c0.1,0.3,0.1,0.7,0.2,1 c-4.7-0.5-9.5-0.3-14.2,0.5c-5.9,1-10.8,4.6-15,8.7c0,0-0.1,0.1-0.1,0.1c-2.2-5.8-4.9-11.4-8.3-16.5c-3.7-4.8-6.5-8.1-9.9-10.6 c1.2-2.4,2.2-7.5,2.5-8.5c2.4-7.4,11.7-6.1,17.8-7.5c5.7-1.2,11.4-3.1,16.3-6.4C394.7,467.9,394.1,474.1,393.9,480.2z M157.4,158.5 c0.3-3.5,3.7-3.8,6-6.1c1.5-1.9,1-4.7,0.1-6.8c-1.7-3.2-7.9-6-5.2-10.3c0,0,0,0,0,0c3.6,5.4,11.3,8.7,17.3,9.4 c3,0.5,5.8-0.8,8.5-1.9c0.2-0.2,0.4-0.4,0.5-0.6c1.1,0.8,2.5,1.3,4,1.2c5.1-0.7,5.9,0.2,9.2,3.8c2.8,2.4,2.9,6.2,4.5,9.3 c1.2,2.3,2.8,4.4,4.7,6.2c1.9,2,4.8,3.9,4.7,6.9c0,5.1-6.1,3-9.3,3c-2.4,0.1-4.9,0.6-7.2,1.3c-0.8,0-1.1,0.6-1.1,1.4 c-0.8-0.3-1.7-0.6-2.5-0.8c-4-1.3-7.9-2.8-11.5-5.1c-2.6-1.4-4.6-4-7-5.8c-2.6-1.6-5.3-3.1-8.1-4.3 C162.3,158,159.9,158,157.4,158.5z M102.4,93.4c0.2-2.2,1-4.4,1.3-6.6c0.1-0.3,0.1-0.6,0.2-0.9c2.4,0.2,4.7,1.2,7,1.9 c2.1,0.6,4.4,0.9,6.6,1.2c4,0.1,8.2-0.2,11.9-1.6c4.2-2.4,3-7.9,2.3-11.8c-0.9-2.6,2-2.9,3.9-2.5c2.9,0.4,5.8,4,6.8-0.9 c0.3-1.3,0.2-2.5,0.2-3.8c3.2,2.1,7.1,2.7,10.5,4.1c0.9,0.3,1.7,0.5,2.5,0.5c0.4,2,2.2,3.9,3.5,5.4c3,2.1,6.7,4,7.2,8.1 c0.8,3.1,0.7,6.5,1.5,9.6c0.1,0.2,0.2,0.3,0.2,0.5c-0.2,0.1-0.3,0.3-0.4,0.6c-3.3,2-8.1,3.3-9.6,7.3c-1.2,6.1,1.7,9.4-3.9,14.7 c-0.2-0.1-0.3,0-0.5,0.1c-0.9-0.7-1.9-1.3-3.1-1.7c-3.8-1.2-7.8-1.1-11.7-1.2c-2.6-0.7-5.3-1.1-7.9-1.9c-1.6-0.8-3.3-2-4.2-3.5 c-1.4-4.4-3-9.9-8-11.2c-1.4-0.4-2.8-0.2-4.3,0.1c-3.4,0.3-8.5,1-10.8-2C103,96.5,102.6,94.9,102.4,93.4z M235,66.5 c1.7,2.8-4.8,8.8-6.1,11.5c-1,1.9-1.5,4-1.6,6.1c-0.2-0.1-0.5-0.3-0.7-0.4c-1.1-0.5-2.2,0.1-3.1,0.8c-1.3,0.9-2.6,1.4-4,2.1 c-1.6,1.1-3.4,2-5.3,2.2c-0.9,0.2-2,0.4-2.3-0.8c-0.8-2-1.1-4.3-2.3-6.1c-2.9-4.1-9-3-12.1,0.3c-0.2-0.1-0.4-0.2-0.5-0.3 c-3.7-2.9-6.8-7-6.9-11.9c0.2-6.9,7.9-11,7.9-17.9c0.2-2.4-0.2-4.7-1.2-6.9c3.4-3,10-8.2,13.6-2.8c0.9,1.9,0.8,4.1,1.8,6 c1.1,2.8,4.2,4.4,7.1,4.3c2.3-0.4,4.3-2.2,6.8-1.8c2.9,0.6,4.8,3.2,5.9,5.8C231.3,60.4,232.7,63.8,235,66.5z M257.9,163.1 c-4.3-0.8-9.2-1.8-11.4-5.9c-0.1-0.2-0.2-0.4-0.4-0.7c4.9-1.6,10.1-1.5,15.3-1.5c0.3,0,0.7,0,1.1,0 C260.1,158.4,258.8,161,257.9,163.1z M251.3,180.6c-1.8-0.6-3.3-1.7-4.9-2.8c-2.8-1.7-5.8-3.2-8.4-5.1c-0.8-0.7-1.6-1.5-2.5-2.2 c0.1-0.7-0.1-1.6-0.7-1.6c-3.1-6.5,3.2-8.5,7.9-10.9c0.6-0.3,1.2-0.6,1.9-0.9c0.2,0.3,0.4,0.5,0.6,0.8c0.9,1.7,2.1,3.7,3.8,4.8 c2.6,1.4,5.4,2.3,8.2,2.8C255.9,170.9,258.1,173.1,251.3,180.6z M221.3,175.5c-1.5-2.4-3-4.1-6.7-4.7c-0.1-1-0.3-2-0.5-2.9 c-0.6-2.5-2-4.4-3.6-6.1c2.4-1,4.7-2.3,7.3-2.9c1.4-0.6,2.7-1.4,3.8-2.3c0.8-0.7,1.6-1.6,2.7-1.7c2.3-0.4,4.5,0.9,6.8,0.8 c0.8,0,1.8,0,2.4-0.6c0.2-0.1,0.3-0.2,0.4-0.3c1.4,1.1,3.1,2.1,4.7,2.7c0,0,0,0,0,0c-3.4,1.5-6.3,4.5-5.9,8.4 c0.1,1.2,0.4,2.4,0.7,3.5c-0.4-0.1-0.8-0.2-1.3-0.2c-4.2,0-7.6,2.9-10.2,5.9C221.7,175,221.5,175.2,221.3,175.5z M184.2,137.5 c-1.1-5.2,2.8-9.8,3.5-14.8c0.2-3.6-1-7-1.3-10.5c-0.6-2.3,1.6-2.8,3.4-3.1c2.2-0.5,4.4,0.2,6.4,1.1c2.9,1.2,5.8,2.6,7.9,5.1 c2.7,2.9,5.9,5.2,9.1,7.5c1,0.8,2.1,1.5,3.2,2.1c-0.3,0.4-0.7,0.8-1.1,1.2c-3.1,2.7-6.6,5.5-7.3,9.9c-0.2,0.9-0.3,1.9-0.3,2.8 c-2.1-0.3-4.5,0.2-7.1,1.2c-1,0.5-2.5,1.2-3.3,2.1c-1.1-1.2-2.1-2.4-3.7-3C190.6,137.5,186.9,139.9,184.2,137.5z M240.3,128.1 c-0.3,1.7-0.7,3.3-1.2,4.9c-0.5,1.6-1.2,3.3-2.2,4.7c-2.2,2.2-5.3,3.6-6.4,6.8c-1.5,3.3-0.4,6.2,1.7,8.5c-2.3,0.4-4.4-0.7-6.7-0.7 c-1-0.1-2,0.1-2.9,0.6c-0.2,0.2-0.5,0.4-0.7,0.5c-0.1-0.1-0.1-0.3-0.2-0.3c-2.8-1.5-4.4-5.1-3.6-8.3c0.5-2.4,2.3-4.2,3.7-6.1 c2.4-3.2,4.3-6.7,5.6-10.5C231.8,128.7,236.1,128.5,240.3,128.1z M221.6,136.2c-1.2,1.7-2.8,3.2-3.7,5.2c-0.6,1.2-1,2.5-1.1,3.8 c-0.6-0.8-1.5-1.4-2.3-2c-1.6-2.1-3.3-3.3-5.1-4c-0.1-0.2-0.3-0.4-0.5-0.5c0-2.2,0.9-4.4,2.3-6.1c2.1-2.5,5.1-4.1,6.8-6.9 c2.6,1.2,5.3,1.9,8.1,2.3C225,130.9,223.4,133.7,221.6,136.2z M210.2,142.1c1.8,0.8,2.8,2.6,4.3,3.8c0.7,0.4,1.5,0.9,1.7,1.7 c0.2,0.3,0.4,0.4,0.6,0.3c0.3,2.7,1.5,5.2,3.5,6.8c-0.3,0.2-0.6,0.4-0.9,0.6c-3,1.7-6.5,2.4-9.5,4.1c-0.4-0.7-0.9,0-1.2,0.5 c-1.2-1.2-2.3-2.3-3.3-3.6c-2-2.6-2.3-6-3.8-8.8c-0.8-1.5-1.7-2.7-2.9-3.8C202,141.6,206.7,140.3,210.2,142.1z M246.9,153.8 c-1.8,0.5-3.4,1.3-5,2.1c-0.1-0.1-0.2-0.2-0.4-0.3c-3.1,0-11.6-5-10.3-8.9c0.9-3.6,4.6-4.7,6.7-7.4c2.1-3.2,2.9-7.1,3.7-10.8 c0-0.2,0.1-0.4,0.1-0.6c0.4,0,0.8-0.1,1.2-0.1c10.5-0.8,8.6,7.1,13.8,12.1c-1.1,1.1-2,2.4-3,3.6c-2.4,2.5-3.8,6-3.2,9.4 C249.3,153.1,248.1,153.4,246.9,153.8z M253.3,126.8c-0.3,0.1-0.7,0.3-1,0.4c-1.6-1.9-3.7-3.4-6.1-4c-1.6-0.3-3.2-0.4-4.8-0.3 c0-0.2,0-0.3,0-0.5c0.3-2.7,1-5.8,3.2-7.7c2.3-1.8,4.7-3.4,7.1-5c1.4-1,2.6-2.4,4.2-3.1c1.7-0.9,3.9-1.1,5.9-1 c2.5,0.1,4.9,0.4,7.1,1.6c5.1,2.6,10.1,5.9,13.1,11c0.8,1.5,1.8,3.2,2.7,4.6c0.1,0.2,0.3,0.4,0.4,0.5c-1.4,0.8-2.9,1.5-4.5,1.8 c-5.1,1.4-10.5,1.4-15.8,1.2C261.1,125.9,257,125.3,253.3,126.8z M240.3,122.6c-0.1,0.1-0.1,0.3-0.1,0.5c-1.5,0.1-3,0.3-4.5,0.4 c-6.1,0.5-12.7,0.4-18.3-2.5c0.3-0.6,0.7-1.2,1.1-1.7c3-4.1,6.8-8.1,12-9.2c2.8-0.1,6.4-0.6,8.5,1.7c0.8,1.1,1.6,2.4,2.6,3.5 c0.1,0.1,0.2,0.2,0.4,0.3C241,117.8,240.4,120.1,240.3,122.6z M231.4,107.5c-4.8,0.4-9,3.9-11.9,7.6c-1.5,1.4-2.4,3.3-3.6,4.9 c0,0-0.1,0.1-0.1,0.2c-5-2.8-9.2-6.6-13.3-10.6c-1.8-1.7-4.2-2.6-6.5-3.7c-1.3-0.6-2.7-1.1-4.1-1.4c0.6-1.9,1-3.8,1.4-5.7 c0.8-3.3,1.9-6.6,2.8-9.9c0.5-1.4,0.6-2.9,1.5-4.1c0.1-0.1,0.1-0.1,0.2-0.2c0.1-0.2,0.3-0.3,0.4-0.4c3.1-2.6,8.7-3.6,10.8,0.6 c1,2,1.1,4.6,2.6,6.4c0.5,0.5,1.2,0.5,1.8,0.4c3.6-0.2,6.3-2.5,9.4-3.9c2.2-1.4,2.4-2,4.5-0.8c0.2,1.4,0.5,2.7,0.9,4.1 c0.5,1.8,1.3,4.1,3.5,4.2c2,0.3,6.3-0.7,4.8,2.7C235.5,101,231.1,103.9,231.4,107.5z M195.3,46.8c0.2,0,0.3-0.1,0.4-0.2 c0.5,1.2,0.8,2.4,1,3.7c0.4,3.2-1.1,6-3.1,8.3c-1.9,2.8-3.9,5.7-4.6,9.1c-1.1,6.3,2.2,12.8,7.3,16.5c-1,2.4-1.4,4.9-2.3,7.3 c-1,3.3-1.8,6.7-2.6,10c-0.1,0.9-0.6,1.8-0.8,2.8c-0.6,0-1.2,0-1.9,0.2c-1.6,0.3-3.4,0.6-4.4,1.9c0,0,0,0,0,0 c-3.1-2.3-6.6-4-9.9-6.1c-2.2-1.3-4.2-2.9-5.2-5.3c-0.8-3.1-0.7-6.5-1.5-9.7c-1.2-7.5-7.2-7-10.3-12.6c3-0.6,5.6-2.8,8.5-4.3 c12.4-5.7,3.8-20.2,10.9-24.3c2.3-1.2,4.5,0.6,6.4,1.7c2,1.3,4.4,1.8,6.7,2.1c1.1,0,2.1,0,3.1-0.3 C193.8,47.4,194.5,46.7,195.3,46.8z M155.8,120.3c3.8-4.2,3.4-8,3.2-13.3c-0.1-2.3,2.2-3.6,3.9-4.7c1.6-1,3.2-1.7,4.9-2.6 c0.7-0.3,1.1-0.8,1.3-1.5c3.2,4.9,9.7,6.7,14.4,10.3c-0.1,0.9,0,1.8,0.1,2.6c0.2,2.5,1.1,5.6,1.3,8.2c0.1,2.7-1.6,5.1-2.3,7.7 c-0.8,2.4-1.5,5-1.3,7.5c0,1.3,0.2,2.7,0.7,4c-1.4,0.6-2.9,1.3-4.4,1.5c-6.2,0.5-12.3-2.3-16.9-6.4c-1.3-0.8-1.6-2.7-2-4.1 c-0.7-2.9-1.5-6.2-3.3-8.6C155.5,120.6,155.7,120.5,155.8,120.3z M203.6,177.5c2.9,0,6.1,1.3,8.8-0.3c1.2-0.9,1.8-2.3,2.1-3.7 c1.1,0.2,2.1,0.4,3.1,0.9c3,1.6,3.5,5.3,5.8,7.6c1.9,1.9,4.9,2.6,6.2,5.2c0.7,1.1,0.9,2.4,1,3.7c0.1,2,0,4.1-0.1,6.1 c-2.1,0.6-4.1,1.1-6,2c-0.4-0.5-0.9-0.9-1.4-1.3c-1.5-1.6-3.3-3.4-5.1-4.9c-5.8-5.5-12.5-9.9-19-14.5 C200.4,177.8,202,177.4,203.6,177.5z M247.8,184.1c-3.8,2.6-6.1,6.7-9.8,9.5c-1.9,1.5-4.1,2.3-6.3,2.9c0.2-3.1,0.4-6.4-0.4-9.4 c-0.6-1.9-1.8-3.6-3.5-4.9c-1.4-0.9-3-1.6-4.1-3c-0.4-0.7-0.8-1.3-1.2-1.9c0.7-0.5,1.2-1.6,1.9-2c2.4-2.3,6.1-4.8,9.6-3.3 c1.4,0.5,2.3,1.8,3.4,2.7c2.2,1.8,4.8,3,7.1,4.5c1.7,0.9,3.3,2.2,5,3.1C249,183,248.4,183.5,247.8,184.1z M264.4,152.5 c-4.1,0.3-8.3-0.1-12.4,0.3c-0.1-0.3-0.1-0.5-0.3-0.7c-0.5-2.5,1-4.6,2.6-6.4c1.1-1.3,2.2-2.8,3.4-4c0.2-0.2,0.3-0.4,0.4-0.6 c0.1,0.1,0.2,0.1,0.3,0.2c2.5,2.3,5.7,3.5,8.5,5.3c0.2,0.2,0.6,0.7,1.1,1.2c-0.2,0.3-0.4,0.5-0.6,0.8 C266.3,150,265.3,151.3,264.4,152.5z M338.2,108.8c-5.4,6-14.7,4.6-21.8,6.9c-5,1.6-12.5,1.3-14.8,7c-1.7,5-3.6,10.7-8.4,13.7 c-1.4,1-3,1.4-4.7,1.6c-9.8-0.3-13.4,0.9-18.4,7.2c-0.1-0.1-0.2-0.2-0.4-0.2c-2.5-3.7-7.2-4.7-10.5-7.5c-3.1-1.7-4.3-5.1-5.6-8.2 c3.6-1.4,7.5-0.9,11.2-0.2c1.6,0.3,3.5,0.1,5.2,0c3,0,6.1,0,9-0.7c2.9-0.6,5.7-1.7,8.2-3.3c0.1,0,0.1-0.1,0.2-0.1 c0.2-0.1,0.5-0.3,0.7-0.5c1.5-1.4,3.3-2.2,4.8-3.4c3-2.7,2.6-6.9,2-10.6c-0.4-5.2,5.4-8.6,9.5-10.6c0.7-0.3,1.5-0.7,2.3-1 c5.2,1.3,10.6,1.6,16,1.8C329.4,100.4,334.6,102.8,338.2,108.8z M256.8,66.7c2.4,5-1.1,11.3,3,15.9c7.6,10.8,16.2-3.5,24.1,2.3 c5.2,3.6,9.6,8.4,15.3,11.3c1.3,0.7,2.6,1.3,4,1.8c-1.4,0.8-2.6,1.5-3.2,1.7c-3.1,2.1-6.3,5.3-6.6,9.3c-0.2,4,2.1,8.5-2.6,10.9 c-1.4,0.9-2.7,1.9-4.1,2.8c-0.3-0.2-0.6-0.4-0.8-0.7c-2.7-3.9-4.6-8.5-8.5-11.5c-2.6-2.4-6.1-4.1-9.3-5.8c-5-2-11.7-2.1-15.7,2 c-3,2.5-6.9,4.2-9.4,7.1c-0.1-0.1-0.2-0.1-0.3-0.1c-1.8-1-2.4-3.2-3.9-4.6c-1.4-1.1-3.1-1.4-4.8-1.5c0-0.1,0-0.2-0.1-0.2 c-0.3-0.9-0.8-0.3-1.4-0.2c0.6-1.8,1.9-3.1,3.1-4.6c1.7-2.2,3-5.3,2.1-8c-1.2-2.8-4.6-1.3-6.9-2.1c-0.9-0.5-1.2-1.6-1.5-2.6 c-0.5-1.2-0.8-2.4-0.9-3.7c0-0.2,0-0.5,0-0.7c-0.1-2.9,0.8-5.7,2.9-7.9c2.7-3.8,7.5-8.9,3.8-13.6c-1.8-2.2-3.6-6-0.9-8.2 c1-0.8,2.4-1.4,3.8-1.1c5.5,1.1,5.1,6.5,12.5,5.7c0.9-0.1,1.8-0.3,2.8-0.5C254.1,62.2,255.4,64.5,256.8,66.7z M216.8,25.5 c5.1,2,10.6,2.9,16,4c8.9,0.1,18.1-1.1,26.7,1.4c4,1.8,8.3,2,7.7,7.6c-2.4,2.4-5.1,4.7-8.1,6.4c-1.8,1-3.7,1.9-4.8,3.7 c-1.7,2.9-2,5.9-1.5,8.7c-0.4,0.1-0.9,0.2-1.4,0.3c-4,0.6-6.5-0.5-9.1-3.6c-2.9-2.9-7.7-2.6-9.7,0.8c0,0,0-0.1-0.1-0.1l0,0 c0,0,0,0.1,0,0.1c0,0,0,0,0,0c-1.2-2.8-3.5-5.7-6.6-6.2c-2.4-0.4-4.4,1.2-6.6,1.8c-2.5,0.2-5.5-1.1-6.4-3.7c-0.9-2-0.7-4.4-2-6.3 c-4.1-6-11.3-0.4-15.1,3.1c0,0,0,0-0.1,0c-1-1.6-2.3-3.1-3.8-4.3c-2.6-2.4-7-3.1-8.9-6.2c-3.1-5.3,2.9-6.5,6.5-8.3 c2.4-1.3,4.7-2.8,6.7-4.8c1.6-1.7,2.7-3.9,3.8-6c1,0.5,1.9,1,2.9,1.5C207.3,19,211.3,23.2,216.8,25.5z M138,37.6 c5.5-1.7,10.7-5,15-8.9c2.8-2.9,3.8-6.9,6.4-9.9c5.5-5.4,12.6-9.7,20.3-11.1c3.1-0.1,6.2-0.4,9.2,0.2c3.4,1.3,6.4,3.3,9.6,5.1 c-0.7,1.4-1.5,2.7-2.4,4c-2.1,2.3-4.7,4-7.6,5.5c-2.5,1-5.7,2-7,4.6c-1.4,3.1-0.2,7.2,2.2,9.5c2.3,1.9,5.3,2.8,7.7,4.7 c1.1,1,2.1,2,3,3.1c-0.1,0-0.2,0-0.2,0.1c-2.9,1.6-6.5,0.7-9.5-0.4c-1.8-0.9-3.4-2.2-5.3-2.7c-3.9-0.9-6.4,3.4-6.9,6.8 c-0.5,4.4,0,8.9-1.7,13.1c-1.4,2.7-4.1,4.3-6.8,5.5c-2.1,1.2-4,3-6.5,3.4c-2.8,0.6-5.2-1-7.8-1.6c-2.6-0.8-5.3-1.7-7.5-3.3 c-1.2-1.1-1.9-2.6-3-3.9c-2.2-3.6-5-7-6.7-11c-1.5-4-1.9-8.3-1.7-12.6c0,0,0,0,0,0C133.2,38,135.6,38.2,138,37.6z M86.1,37.5 c8.5,2.5,11.4,16.2,21.7,14.5c5.7-0.5,9.7-5.3,10.3-10.8c0.8-2.7,4.6-3.1,7-3.5c1.5-0.1,3,0,4.5,0.1c-0.1,5.2,0.2,10.6,2.5,15.4 c1,2.4,2.7,4.4,4.1,6.6c1.5,2.6,3.2,5.2,5.2,7.5c0,0,0.1,0,0.1,0.1c0,1.1,0.1,2.2,0,3.2c-0.1,1.9-1.1,1.9-2.6,1.1 c-2.6-1.5-7.6-2.6-8.4,1.4c-0.5,3,1,5.9,0.7,9c-0.4,2.6-3.2,3.4-5.5,3.8c-2.4,0.4-4.7,0.7-7.2,0.6c-3-0.1-6-0.6-8.8-1.6 c-1.8-0.7-3.6-1.3-5.5-1.5c0.4-6.2-1.7-11.9-6.3-16.6c-3.6-3.8-8.2-6.5-12-10.1c-1.5-2-2.6-4.2-3.8-6.3c-1-2.3-1.6-4.8-2.6-7.1 c-0.8-2-1.7-4-2.7-6c-0.2-0.5-0.4-1-0.6-1.4C79.4,36.2,82.9,36.9,86.1,37.5z M30.9,46.8c2.8,2.5,6,4.6,9.3,6.5 c3.6,2.1,7.9,4.5,12.2,3.7c6.8-2.3,9.6-10.1,10-16.7c3-3.2,6.7-4.3,10.6-4.4c0.4,0.4,0.7,0.8,0.9,1.3c1.4,3.1,2.9,6.1,4.1,9.2 c1.4,4.9,3.8,9.4,6.8,13.6c4.8,5.2,11.8,8.2,15.5,14.5c1.8,2.8,1.3,6.2,0.9,9.3c-0.7,3.9-2.3,7.8-0.8,11.7c0.2,0.9,0.4,1.6,0.7,2.3 c-0.2,0-0.5,0.1-0.7,0c-1.1-0.3-2-1.1-2.5-2.1c-1-1.7-1.9-3.4-2.9-5.3c-3.5-5.7-6.2-8.2-13-8.7c-1-0.1-2-0.9-2.8-1.6 c-2.6-2-3.7-6.3-7.2-6.9c-3.2-0.9-4.4,2.9-6.9,4.1c-6.1,1.3-12.6,1.2-18.8,0.4c-6.6-1-12.9-3.5-18.4-7.4c-5.2-2.9-10-6.9-13.8-11.5 c-2.2-2.1-1.8-4.9-2-7.7c-0.2-2-1-3.8-1.7-5.6c3.2-1.7,7.2-2.5,10.9-2.8C25.1,42,28.3,44.1,30.9,46.8z M53.5,135 c-3.2-1.8-7.3-3.3-8.1-7.3c-0.7-3.2,2.2-5.7,3.4-8.5c1.9-3.5,2.8-7.4,3.1-11.4c0.6-4.2-2-19.1-7.5-18.6c-3.5,0.6-5.2,4.2-7.4,6.4 c-8.4,3.2-7.7-6.4-10.6-11.3c-4.5-8-13.6-11.9-20.2-17.8C3.3,63.7,3.7,59.4,4,55.6c0-4.4,2.1-7.3,5-9.3c0.7,1.7,1.4,3.4,1.8,5.2 c0,5.8,0.4,7.4,4.4,11.7c5.1,5.4,11.3,9.1,17.6,12.8c9.6,4.9,20.7,5.5,31.2,4.1c2.5-0.4,3.7-3,5.8-4.2c3.8-1.4,5.6,3.3,7.7,5.5 c0.5,0.4,0.9,0.9,1.4,1.3c-0.2,0.4-0.4,0.8-0.6,1.2c-2.1,4.7,1.7,8.9,1.9,13.5c0.5,7.2-4.1,10.3-9.6,13.6c-2.3,1.8-3.6,5.1-2.4,7.9 c1.4,3.3,3.1,6.6,3,10.3c-0.7,4-2.4,7.8-4.8,11.1c-0.4,0.5-0.7,1-1.1,1.4c-1.2-0.8-2.4-1.5-3.8-2.1C58.6,138.5,56.1,136.6,53.5,135 z M129.3,146.7c-5.5-4-12.5-6.8-19.4-5.9c-6.2,0.7-9.5,6.8-14.7,9.4c-4.9,1.5-10.4,1.9-15.2,0c-3-0.9-5.9-2-8.6-3.6 c-1.6-1.1-3.1-2.4-4.7-3.6c2.5-3.2,4-7,5.2-10.9c1.2-4.2-0.3-8.5-1.9-12.4c-2.3-3.7-0.3-5.6,3-7.6c6.5-3.1,9.6-10.4,8.1-17.3 c-0.4-2.6-1.7-4.8-2.2-7.4c-0.1-1.4,0.7-2.5,1.2-3.8c0.3,0.2,0.6,0.3,1,0.5c2.4,0.5,4.9,0.7,7.1,1.7c3.6,2.2,5.6,6.1,7.5,9.7 c1.1,1.8,2.1,4.6,4.6,4.9c0.6,0,1.1-0.1,1.6-0.4c3,5.1,8.5,5.5,15.3,4.4c1-0.2,2.2-0.1,3.2,0.4c3.9,1.7,3.2,7,5.7,9.9 c2.1,2.8,5.3,4.9,8.9,5.4c2.2,0.3,4.2,1.2,6.4,1.2c4.1-0.1,8.8-0.2,12.4,2.3c2.1,2.6,2.1,6.5,3.4,9.5c0.1,0.2,0.2,0.3,0.2,0.5 c-0.3,0.5-0.5,1.1-0.6,1.4c-1.2,3.5,0.5,7.2,3.1,9.5c2.2,1.8,5.3,5.2,1.4,7c-2.5,1.1-4.7,3.1-4.9,6c0,0.4-0.1,0.9-0.1,1.4 c-2.2,0.6-4.4,1.6-6.8,2.5c-1.3,0.3-2.4-0.7-3.7-0.9c-0.5-0.1-1-0.2-1.4-0.3c0.2-0.9,0.3-1.9,0.2-3c-0.1-2-0.9-2.7-1.7-2.6 c-1.7-0.6-3.2-1.5-4.9-2.1C134.4,151.4,132,148.9,129.3,146.7z M160.5,184.5c-3-1.9-6.7-2.5-9.1-5.5c-2.3-2.3-1.8-7.3-5.7-7.7 c-3.1-0.5-5.6,1.7-8.6,2.1c-2,0.4-4.1,1.9-6.1,0.6c-3.3-2.8,3.9-6,6.1-6.9c2-0.7,3.9-1.9,5.2-3.5c0.7,0.5,1.5,0.8,2.4,1.2 c1.5,0.3,2.8,0.7,4.2,1.3c2,0.5,3.9-0.7,5.7-1.4c1.7-0.6,3.3-1.2,5-1.6c4.8-0.5,9,2.7,13.1,4.8c3.4,2.9,6.6,6.1,10.7,8 c2.8,1.3,5.7,2.5,8.6,3.4c1.9,0.4,3.6,1.1,5.2,2.2c8.4,5.8,17.1,11.9,24.4,19.2c-4.9,4.5-6.7,11.1-8.5,17.3 c-1.3,5-0.3,10.6-2.8,15.2c-0.8,0.9-1.6,1.7-2.4,2.5c-0.2-0.2-0.4-0.4-0.6-0.6c-1.1-1.2-2.5-2.1-3.7-3.3c-3.1-2.5-7-4.5-10.9-5.5 c-3.2-0.8-6.7-0.6-9.4-2.7c-2.5-1.5-4.2-4.1-5.4-6.7c-1-1.9-2.4-3.5-3.5-5.4c-1.9-3.4,0.9-7.8-1.5-11.2c-1.6-2.5-4.6-3.4-7.4-3.7 C166.8,192,164.7,186.8,160.5,184.5z M165.6,263.4c-4.3-1.7-9-1.4-13.5-2.5c-5.9-1.9-12.3-3.4-16.9-7.9 c-4.7-5.1-8.8-11.1-15.3-14.1c-2.9-1.4-6.2-1.7-9.3-2.5c-2.7-0.6-6.5-0.2-7.4-3.5c0.6-1.7,2.8-1.8,4.2-2.6 c5.1-2.1,7.5-7.3,8.7-12.3c1.7-5.9,13.6-0.7,18-0.5c5,1.4,10.4,1.5,14.3-2.3c5.2-3.2,8.8-8.1,12.6-12.8c1.2-1.2,2.7-2.2,3.6-3.6 c3.5,0.3,8.1,1.3,8.2,5.3c0,2.2-0.5,4.4-0.1,6.7c1.1,3.7,4,6.4,5.5,9.9c3.2,5.5,7.6,7,13.6,7.7c5.7,1.2,10.7,4.5,14.9,8.6 c-5.1,5.9-7.7,11.5-6.2,20.6c-0.4,4.6,0.9,8.8,3.4,12.6c0.6,1.5,1.4,3.1,2.1,4.6c-1.1,1.2-2.5,2.2-4.2,2.5c-4,1.2-8.3,1.5-12.5,1.4 c-3.8,0.1-7.4-1-10.8-2.6c0.4-3.5-0.5-7-3.3-9.3C172.2,265.3,168.7,264.9,165.6,263.4z M182,298.9c-4.3-1.5-7.3-5.8-10.2-9.2 c0.9-2.8,3.1-4.9,4.5-7.4c0.7-1.1,1.3-2.4,1.7-3.7c3.4,1.7,7.2,2.8,11.1,2.8c5.1,0,14.7,0,17.8-4.6c1.1,2,2.2,4,3.4,6 c4,7,8.7,13.8,15.2,18.6c4.7,2.4,10,3.7,15,5.4c3.8,0.9,5.9,3.3,7.1,6.2c-1.7-0.1-3.7,1-5.2,1.4c-3,0.8-6.1,1.3-9.3,0.9 c-2.1-0.5-4.3-1-6-2.4c-1.7-1-2.9-2.6-4.6-3.5c-5.5-2.9-14.6,0.8-20.1,4.3c-0.2-1.7-0.7-3.6-2.3-6C195.1,300,190.5,299.5,182,298.9 z M244,356.4c-3.2-1-6.6-1.7-9.6-3.3c-3.3-2.1-6.2-4.8-9.7-6.7c-7.8-5.2-14.1-12.5-19-20.4c-3.1-4.3-3.1-7-3.1-9.7 c2.4-1.6,5.1-2.9,7.9-3.8c3-1,6.1-2,9.4-1.5c3,0.4,4.9,3,7.3,4.6c1.9,1.4,4.3,2,6.6,2.4c3.2,0.2,6.4-0.2,9.4-1.2 c1.7-0.6,3.6-1.5,5.4-1c0.9,4.2,0.6,9,0.5,12.9c1.1,12,6,24.3,15.3,32.3c3.9,3.5,9.1,3.2,14,3.4c-2.1,2.1-4.5,3.8-6.5,6 c-2.4,2.1-5.7,2.6-8.8,2.1c-2.4-0.4-4.9-1.4-7.4-1.3C254.9,365,252.5,359.7,244,356.4z M275.4,399.8c-1.6-1.7-4-3.1-6.5-2.5 c-2.4,0.6-3.1,3.5-5.3,4.5c-7-0.2-8.2-9.4-7.7-15c-0.3-4.6,0-9-0.2-13.1c2.2,0,4.2,0.7,6.3,1.1c7,1.3,9-1.2,13.7-5.5 c1.6-1.3,3.3-3,4.7-4.6c0,0,0.1-0.1,0.1-0.1c1.2,0.1,2.3,0.3,3.4,0.7c0.3,0.2,0.5,0.5,0.6,0.9c0.5,3.5,2.1,7.3,3.6,8.9 c4.5,4.4,9.5,8.6,15,11.8c-2,1.9-4.1,3.5-6.7,4.5c-8.2,2.7-15.3,4.3-10.3,14.5c-0.2,1.9-1.1,3.6-2.2,5.2c0,0-0.1,0.1-0.1,0.1 C280.7,408.2,279.2,404.6,275.4,399.8z M292.1,415.7c-3-1.1-5.1-2.2-6.8-3.5c1.2-1.9,2.1-4,2.2-6.2c0.4-3-3.6-5.5-0.5-8 c3.1-2.6,7.2-3,10.8-4.6c2.9-1.1,5-3.3,7.2-5.4c0,0,0,0,0-0.1c6.3,3.6,12.8,7,17.8,12.4c-3.7,6.1,0.7,13.1,6.8,15.2 c-0.1,0.1-0.1,0.2-0.2,0.3c-1.7,2.3-3.6,4.6-6.1,6.1c-4.8,2.2-10.1,3.7-15.4,4c-0.7,0.1-1.4,0.1-2.1,0.1c-0.1-2.8-1.1-5.5-2.9-7.5 C300,416,295.7,416.3,292.1,415.7z M301,448.8c-9-7.6-3.7-8.8,2.5-14.9c0.7-1,1.3-2,1.7-3.2c0.1,0.1,0.3,0.1,0.4,0.1 c1.6-0.2,3.3-0.2,4.9-0.4c3-0.2,6-0.9,8.9-1.9c3.2-0.9,6.5-2.1,8.8-4.6c2.3-2.2,4.2-4.8,5.6-7.6c0.1-0.1,0.1-0.2,0.1-0.3 c7-0.5,11.6-4.3,17.6,2.7c2.3,9.7,4.4,19.7,10.7,28c3.8,6,9.6,10.8,15.7,14.3c2.7,1,5.6,1.3,8.3,2c-0.7,0.4-1.5,0.9-2.3,1.2 c-4,1.9-8.4,3.1-12.7,4c-3.8,0.7-7.9,0.4-11.5,2c-5.8,2.1-6,7.1-7.5,12.3c-0.3,0.9-0.5,1.8-1.1,2.6c-0.1,0.1-0.3,0.2-0.4,0.3 c-2.9-1.9-6.4-3.4-11.1-4.9c-3.9-3.1-5.6-8.3-11.1-9.2c-1.2-0.4-5.1-0.7-8-0.1c-0.2-1.4-0.3-2.7-0.5-4 C317.3,454.1,309.2,456,301,448.8z M312,511.8c1.2-9.2-0.3-12.9-4.1-21c3-6.7,11.2,2.3,12.6-7.7c0.1-0.3,0.1-0.6,0.1-1 c0.4-1.9,0.5-3.8,0.5-5.8c2.1-0.7,4.4-0.7,6.6-0.6c5.9,0.7,7,4.7,10.7,8.2c2,2,4.9,2.3,7.4,3.2c6.7,2.6,11.5,8.1,15.7,13.8 c1.8,3,3.4,6.2,4.8,9.4c-1-0.1-2.1-0.5-3.2-0.4c-8.7,0.5-14.1,8.2-19.9,13.7c-4.1,3.9-9.8,4.5-15.1,5.3c-4.8,1.2-9.2,4.1-12.3,8 c-2.3,2.8-4,5.9-6.8,8.3c-1.2,1.2-2.4,2.4-3.7,3.5c0,0,0,0,0,0c-1.5-2.4-2.9-4.8-4-7.3C299.8,528.7,311.9,523,312,511.8z M306.5,550.5c2.4-2.1,4.8-4.3,6.8-6.9c3.9-6.4,10-11.9,17.7-12.5c4.6-0.5,9.4-1.9,12.8-5.1c7-6.8,12.3-15.1,23.4-13.1 c0.1,0,0.1,0,0.2,0c0.6,1.3,1.1,2.7,1.6,4.1c1.3,4.3,2.2,8.7,4.4,12.6c1.7,3,2.8,5.8,4.5,9.1c3.9,5.9,7.2,12.3,8.6,19.4 c0.9,6.5-8.6,5.5-10.6,10.4c-1.2,3,0.6,6.8,3.4,8.3c1.1,0.7,2.7,0.9,3.5,2c2.3,3,3.2,7.5,1.2,10.9c-1.9,3-5.8,4.3-7.2,7.7 c-0.3,0.6-0.5,1.2-0.5,1.8c-3,0.6-5.6,0.5-8.1-1.9c-3.6-2.7-5.2-7-8.3-10.3c-8.6-11.5-25-12-38-9c-3.1,0.5-6.2,1.3-9.3,2.1 c0.5-5.5,0.3-11-0.3-16.4C311.5,558.8,309.1,554.6,306.5,550.5z M302.8,647.4c10.4-3.4,9.7-18.2,10.3-27.2c0-1.6-0.1-3.2-0.2-4.8 c0,0,0,0,0.1,0c4.3-0.5,9-0.5,13.1,1.2c2,1.1,4,2.1,5.5,3.9c1.9,2.3,3.1,5.1,2.8,8.2c-0.8,6.3-1.5,11.2,3.7,16 c1.6,1.3,3.3,2.3,4.4,4.1c-1.3,0.5-2.4,1.1-3.4,2.1c-1.9,2.4-1.1,6.4,1.1,8.5c1.6,1.5,4.5,3,4.3,5.5c-1.4,3-6,4.7-9.2,4.1 c-3.5-0.4-5.8-3.6-9.1-4.6c-4.1-0.9-9.1-0.3-11.8,3.3c-1.7,1.5-3.1,3.1-5.1,4.1c-2,0.8-4.2,1.2-6.4,1.2c1-2.3,1.9-4.5,2.1-7 c0.3-6.8-6-10.5-9.9-15.1c-0.1-0.3-0.2-0.6-0.2-0.9C297.4,649,300.1,648.2,302.8,647.4z M254.6,670.3c0.8-2.6,0.3-5.8,2.3-7.9 c4.7-5.5,14.3-1.7,20.9-3c5.5-0.7,9.4-4.9,13.9-7.6c0.3-0.2,0.6-0.4,0.9-0.5c0.5,1.6,1.3,3.2,2.6,4.4c2,2.4,4.8,4.1,6.5,6.7 c1.4,2.4-0.8,5.1-1.6,7.4c-2.3,5.5-3.9,10.6-1.6,15.3c-0.7,0.1-1.4,0.2-2.1,0.3c-2.9,0.7-5.5,2.4-7.9,4.1c-3,2.2-6,4.7-8.3,7.7 c0,0,0,0-0.1-0.1c-3-2.1-6.6-3.3-10.2-3.9c-2.3-0.6-4,0.5-6.1,1.2c-2.3,0.1-4.9-0.5-6.3-2.4c-1.4-2.1-3.4-3.8-5.8-4.7 c-0.1-0.1-0.2-0.1-0.3-0.1c0.1-2.7-0.7-5.6-2.4-8.8C252,676.8,254,673.7,254.6,670.3z M275.5,722C275.4,722,275.4,722,275.5,722 c-5.3,0.4-9.2-1.9-12.1-6.2c-2.8-3.3-6.6-8.1-11.4-6.5c-0.2-0.4-0.6-0.9-0.9-1.2c-1.3-1.4-3.2-2.4-4.2-4.2 c-0.9-1.9-1.3-4.5-0.5-6.4c2.5-2.7,4.1-5.2,4.8-7.9c0,0,0.1,0,0.1,0c1.7,0.6,3.2,1.6,4.5,2.9c0.9,1.1,1.6,2.4,2.8,3.2 c1.7,0.9,3.8,1.4,5.7,1.1c1.1-0.3,2-1,3.2-1.2c4-0.2,8.1,1.3,11.5,3.4c-1.1,1.8-1.9,3.7-2.3,5.8c-0.5,3.3-0.9,6.6-1,9.8 C275.4,717.1,276.1,719.7,275.5,722z M223.2,706.4c-3.8-2.7-4.3-7.6-4.7-11.9c-0.6-3.2-1.4-6.5-0.5-9.8c4.2-11.7,18.7-4,27.5-5.4 c0.8-0.1,1.5-0.2,2.1-0.4c0.2,0.4,0.4,0.8,0.6,1.1c1.8,3.3,3,7.4,1,10.9c-1,1.7-2.8,3.1-3.8,4.9c-1.4,3.5-0.8,8.2,1.5,11.2 c1,1.3,2.5,2.1,3.6,3.3c-0.5,0.5-1,1-1.4,1.6c-1.2,1.3-2.6,2.6-3.8,3.9c0,0,0,0-0.1,0c-4-1.1-8.6,0-12.6,1.5 C231.4,712.5,228,708.1,223.2,706.4z M218.5,729.2c4,1.3,10.3,3.6,13.1-0.8c1-1.8,1.4-3.8,1.6-5.8c4.8-1.8,11.9-4,16.1,0 c2.2,3.6,1.9,8,3.8,11.7c2,3.8,5.8,5.1,9.6,6.4c-0.9,3.2-1.2,6.6-0.7,9.9c-2.6-1.3-5.6-2-8.3-2.9c-3.3-0.8-6.4-2.1-9.7-2.8 c-4.2-1.3-8.5-2.3-12.8-3c-3.2-0.1-6.4,0-9.6-0.6c-9-1.9-13-9.5-17.5-16.7c0-0.1,0-0.2,0-0.3C208.3,724.5,212.8,725.9,218.5,729.2z M185.1,727.2c7.1-1.6,12.3-3,17.4-3c0,0.2,0,0.4,0.1,0.7c0.6,2.3,2.3,3.9,3.4,6c3.4,6.2,8,10.5,13.9,12.4 c-3.2,2.7-5.6,6.6-4.8,10.8c0.6,2.7,3.7,2.9,5.7,4.2c2.2,1.2,4,2.9,5.8,4.6c-2.4,0.8-5,0.8-7.5,0.7c-3.9-0.1-8.2-1.4-11.9,0.1 c-0.5,0.3-1.1,0.7-1.6,0.9c-0.2,0.1-0.3,0.4-0.4,0.6c-2.5-2.7-5.1-5.3-8.2-7.4c2.8-3.2,4.4-8.1,2.4-12.1c-2.3-4.4-7.2-6.1-10.8-9.2 c-3.1-2.5-5.9-5.6-8.4-8.7c-0.3-0.3-0.5-0.7-0.8-1C181.2,727.1,183,727.3,185.1,727.2z M220.8,782c-2.2-2.1-4.4-4.2-6.5-6.3 c-2.7-2.8-5.2-5.9-7.8-8.8c1.7-1.1,3.7-1.3,5.8-1.2c3.9,0,7.8,1,11.7,0.4c1.4-0.1,2.8-0.5,4.1-1.1c0.1-0.1,0.2-0.2,0.3-0.3 c0.1,0.1,0.1,0.1,0.2,0.2c2.9,2.5,5.3,5.5,7.6,8.6c-1.7,0.8-3.7,1.2-5.4,2c-1.1,0.4-2,1.2-3.1,1.4c-0.4,0-0.7,0.2-1,0.4 C224.5,778.6,222.5,780.1,220.8,782z M195.7,799c-2.9-2.1-7.8-0.6-11.3-1.6c0.6-1.3,1.3-2.5,2-3.8c1.6-2.7,4.3-4.7,6.5-7 c2.1-2.1,2.6-4.2,2.2-6.4c0.2-0.1,0.4-0.3,0.6-0.4c3.6-2.6,8.4-2.4,12.7-2.3c1.2,0,3.4,0,4.2-1c0.9,0.9,1.7,1.9,2.7,2.8 c0.4,0.3,0.7,0.7,1.1,1c-0.5,0.6-0.9,1.2-1.1,1.5c-0.9,1.8-2,3.8-3.3,5.5c-1.4,1.8-3.4,2.9-5.2,4.5c-2.8,2-5.8,3.7-8.8,5.5 C197.2,797.9,196.2,798.3,195.7,799z M195.4,759.4c0.6,0.6,1.5,1,2.1,1.5c0.8,0.6,1.4,1.1,2.2,1.8c4.2,3.6,7.6,8,11.2,12.2 c-0.1,0-0.2,0.1-0.3,0.1c-3.1,0.4-6.3-0.2-9.4,0.3c-2.5,0.4-5,1.3-7,2.9c-2.5-5.3-9.7-10.4-13.3-14.4c3.1-0.3,6.2-2,9.3-2.6 C192,760.7,193.8,760.4,195.4,759.4z M162.7,734.9c5-9.6,8.9-8.9,15.2-8.2c0.4,1.7,1.6,3.4,2.7,4.6c1.8,2.1,3.6,4.2,5.7,6 c3.7,4,9.7,5.6,12.4,10.5c1.2,3.1-0.8,6.5-3,8.7c0,0,0,0-0.1,0c0,0,0,0,0,0c-0.4,0-0.6,0.2-0.7,0.5c-2,1.2-4.5,1.3-6.7,1.9 c-3,0.8-5.7,2.5-9,2.1c-6.2-1.9-12.6-3.7-18.6-6.2c-4.5-2.3-8-6.7-9.4-11.6C155.5,741.3,159.7,738.9,162.7,734.9z M156.4,786.4 c2.9-2.2,6.9-3.2,8.8-6.5c3.1-7-2.7-14.4-8.9-17.3c-3.1-1.5-6.8-0.6-10,0c-2,0.3-3.2-1.7-4.2-3.1c-1.5-2.8-6.2-7.8-2.2-10.4 c3.1-2,6.6-3.5,10.1-5.1c0.4,2,1.3,3.8,2.4,5.6c1.5,2.5,3.5,5,6,6.6c5.7,3.4,12.5,4.5,18.7,6.8c0.6,0.3,1.2,0.4,1.8,0.5 c0.6,1.7,2.9,3.2,3.9,4.5c3.1,3,6.3,5.8,9.1,9.1c1.1,1.5,2.6,3.5,1.9,5.4c-1.8,2.9-4.9,4.6-6.9,7.3c-1.4,2.1-2.7,4.5-4,6.9 c-0.2,0.1-0.3,0.4-0.3,0.7c-1.6,3.2-2.9,6.6-3.9,10.1c-0.1-0.2-0.3-0.4-0.5-0.4c-5.8-4.1-11.4-8.8-19-6c-1,0.3-2,0.7-3,1.2 C155.9,797,155.4,791.7,156.4,786.4z M179.8,844.5c-4.1,2.9-8.7,4.5-13.4,6.4c-4.6,2.9-10.5,1.7-15.1-0.7 c4.9-5.1,3.2-12.9,4.1-19.3c0.6-4.4,1-8.8,1-13.2c-0.3-4-0.8-7.9-0.4-12c0-0.3,0-0.5,0-0.8c8.7-4.7,14.2-1,21.6,4.6 c0.2,0.1,0.3,0.1,0.4,0.1c-1,4.3-1.3,8.6-0.6,12.7c1.2,5.4,6,8.3,10.4,11C185.3,837.2,183.5,841.7,179.8,844.5z M194.7,824.6 c-1.7,2.4-3.7,4.5-5.5,6.9c-0.1,0-0.1,0-0.2,0c-9.7-5.6-12.5-8.9-9.9-20.3c0.8-4,2.3-7.9,4.1-11.6c1.7,1,5.5,0.7,6.9,0.8 c2.4-0.2,5.4,0.2,6.4,2.8c1.8,7.7,5.5,6.5,10.3,10.1C202.4,816.5,198.4,820.7,194.7,824.6z M222.2,807c-5,0.2-9.5,2.1-13.6,4.9 c-0.8-0.6-1.6-1.3-2.5-1.9c-5-3-7-2-8.6-8.5c-0.1-0.4-0.3-0.7-0.5-1c5.3-3.5,11.2-6.3,15.5-11.1c2-2.2,2.7-5.4,4.9-7.4 c0.2,0,0.3-0.1,0.4-0.2c3.5,3.3,6.9,6.6,10,10.3c2,2.5,3.7,5.3,5.4,7.9c-0.1,2,0.2,4,0.5,6C232.4,809.5,225.5,806.5,222.2,807z M247.9,795.1c-1.9,0-3.6-0.7-5-1.9c-1.6-0.9-3.5-0.6-5.2-0.7c-1.6-1.2-2.7,0.7-3,2.9c0,0-0.1,0.1-0.1,0.1c-0.4,0.7-0.8,1.4-1,2.1 c-2.5-4.1-5.4-8.1-8.7-11.7c-0.9-0.9-1.7-1.7-2.6-2.6c1-1,2.1-2,3.4-2.8c0.7-0.5,1.4-1.1,2.3-1.2c2.3-1,4.4-2.2,6.9-2.8 c0.8-0.3,2-0.6,2.7-1.2c0.6,0.8,1.1,1.6,1.7,2.4c3.8,5.1,8.6,9.7,14.1,12.9C251.3,793.2,249.4,795,247.9,795.1z M262.1,774.5 c-1,2.5-4.3,9.2-7.6,14.2c-1-0.6-1.9-1.3-2.9-1.9c-4.7-3.1-8.7-7.1-12-11.6c-4-6.3-9.1-11.9-14.8-16.7c1.5-0.4,2.9-0.7,4.4-0.5 c2.7,0.5,5.5,0.9,8.2,0.8c8-0.6,12-0.3,18.3,3.6c-1.4,3.6-0.7,8.4,2.5,10.4C259.5,773.6,260.8,773.9,262.1,774.5z M257,760.3 c-0.1,0.1-0.2,0.2-0.2,0.3c-3.6-2.5-7.6-4.4-12.1-4.4c-3.5-0.2-7,0.4-10.4,0.1c-2.1-0.2-4.3-0.7-6.4-0.7c-1.8,0.1-3.6,0.6-5.4,1.2 c-0.9-0.6-1.9-1.1-2.8-1.6c-1.1-0.6-2.6-0.8-3.3-2c-0.3-4,3.2-6.8,6.1-9c0.1,0,0.1-0.1,0.2-0.1c1.9,0.3,3.9,0.5,6,0.3 c7.1,0.2,14.3,2.8,21.1,4.8c4.3,1.4,9.1,2.2,13,4.4c0.3,0.8,0.6,1.5,1,2.3C262.6,758.6,258.7,757.9,257,760.3z M264.5,736.7 c-0.6-0.3-1.4-0.5-2-0.7c-3.2-1-7.8-2-8.2-5.9c-0.9-4.2-1.9-8.7-4.9-11.9c-0.7-0.6-1.4-1-2.1-1.4c1-1,1.9-2,2.8-3 c0.8-0.9,1.7-2,3-2.2c9.1-0.2,10.1,13.7,21.2,12.9c-1.4,2.3-2.9,4.6-3.7,7.2c-0.3,0.9-0.4,1.7-0.6,2.6c0,0,0,0.1,0,0.1 C267.8,734.6,265.8,735.2,264.5,736.7z M281.5,738.5c-2.1-2.2-6.3-3.9-10.2-4.1c0-0.1,0-0.1,0-0.2c0,0,0,0,0,0c0,0,0,0,0,0 c0,0,0,0,0,0c0,0,0,0,0,0c0,0,0,0,0,0c0,0,0,0,0,0c0.1-0.5,0.2-0.9,0.3-1.4c1-3.7,4.2-6.6,5.1-10.3c0.4-2.5-0.1-5.3,0.1-7.8 c0.5-4.2,0.2-8.9,2.3-12.8c3.4-6,10.7-11.9,17.2-14.1c0.8-0.1,1.8-0.2,2.7-0.4c0.3,0,0.5-0.2,0.6-0.4c0.6,0.8,1.3,1.5,2.2,2.3 c2.4,1.7,5.1,3.2,8,3.9c4.9,0.4,9.6,0.4,14.4,1.8c0.9,0.2,1.7,0.4,2.5,0.7c-0.8,0.8-1.9,1.1-3,1.3c-1.8,0.3-3.9,0.4-5.7,0.8 c-3.7,0.9-7.4,2.6-10,5.4c-3,4.1-2.1,10.2,0.8,14.1c1.1,1.4,2.6,2.4,3.8,3.8c1.3,1.4,1.8,3.3,1,5.1c-0.6,1.8-1.2,3.8-1.7,5.8 c-1.8,1-3.9,1.3-5.9,0.5c-2.9-1.9-6.5-3.7-10-2.3c-3.1,1.5-6.2,3-8.8,5.3c-1.6,1.3-3.3,2.6-4.4,4.5 C282.5,739.4,282.1,738.9,281.5,738.5z M289.9,749.8c-3.7-1.1-4.4-5-5.9-8.1c0.7-1.6,2.3-2.5,3.6-3.7c1.9-1.6,4-3,6.3-4.1 c8.2-5.4,10.7,4,17.7,0.9c-0.3,2.4-0.1,4.8,0.8,7C304.7,745.8,296.1,750,289.9,749.8z M373.5,700.8c-3.6,1.9-7.4,3.6-10.4,6.5 c-1.5,1.5-2.7,3.3-4.5,4.6c-6.3,3.1-13,5.7-19.3,8.8c-6.7,4.5-9.8,13-17.6,16c-2.3,1.2-5.1,2.8-8.1,4.4c-1.1-2.2-1.1-4.6-0.7-7.1 c0.2-0.3,0.2-0.6,0.2-1c0.2-0.8,0.4-1.7,0.7-2.5c1.4-3.8,2.7-8.2-0.4-11.6c-2.3-2.5-5.2-4.4-5.6-8.1c0,0.1,0,0.1,0,0.2c0,0,0,0,0,0 c-1.7-6.5,5.9-9.7,11.1-10.8c3.2-0.6,7.6,0.1,9.4-3.3c0.1-0.1,0.1-0.3,0.2-0.5c3.9,2,7.3,5.1,11.7,6.3c2.3,1,4.8,0.9,7.1,0.4 c3.8-0.5,8.2-1.7,10.1-5.5c0.7-2,1.1-4.1,2.4-5.8c3.1-2.7,6.9-4.2,10.6-5.9c0.3-0.2,0.6-0.4,0.9-0.6c0,0,0,0,0.1,0.1 c1.6,1.5,3.8,2.2,5.6,3.5c2.5,1.6,4.8,3.6,6.3,6.3c0.2,0.3,0.4,0.7,0.6,1.1C380.2,697.8,376.7,699.1,373.5,700.8z M406.4,675.5 c-1.2,2.9-1.7,6-3.5,8.7c-4.3,6.3-10.9,9.2-17.7,11.8c-2.5-6.2-6.8-8.5-12.3-11.9c2.1-2.6,2.7-6.2,2.9-9.6 c0.6-3.5-0.3-7.1,0.9-10.6c1.1-3.1,2.4-6.1,4.2-8.9c0.2-0.4,0.4-0.7,0.6-1c0.3,0.4,0.5,0.8,0.8,1.2c2.6,4.1,6.7,6.8,11.1,8.5 c3,0.9,5.9,1.8,8.6,3.3c1.7,0.9,3.6,1.6,5.1,2.9c0.2,0.6,0.5,1.1,1,1.5c0.2,0.2,0.4,0.3,0.6,0.4 C407.8,672.9,406.9,674.1,406.4,675.5z M412,616.3c-5.6,5.5-4.4,14.1-0.7,20.4c-2.4,3.4-7.4,5.1-7.1,10c-0.4,5.4,0.3,10.8,2.3,15.8 c0.4,1.5,1.2,2.8,1.8,4.2c-1.1-1.4-2.6-2.6-4.2-3.3c-6.5-4.1-15.4-4.1-20.2-10.7c-2.7-3.4-3.5-7.7-3.5-12c0.4-2.9-0.3-6.3,1.8-8.6 c1.3-0.9,2.8-1.3,4.1-2.2c1.8-1,2.9-2.7,4.2-4.1c1.7-1.6,2.7-3.6,3.1-5.8c0,0,0,0,0,0c7.5,1.2,12-7,19.2-7.7 c1.2-0.2,2.4-0.2,3.7-0.2C415.1,613.5,413.3,614.7,412,616.3z"/><path d="M112.1,744.6c-4.8-1.9-5.9,2.2-9.4,4.1c-8.9,3.3-6.4,15.2-1.5,20.9c3.4,2.7,5.6,6.9,9,9.7c0.6,0.2,1.1-0.1,1.5-0.6 c3.5,1.4,3.2-11.4,4.3-13.9C116.7,758.4,120,747.7,112.1,744.6z M113,759.4c-0.4,3.9-1.5,8-2,12.1c-1.9-1.9-3.5-4.1-5.2-6.2 c-2.6-2-4.5-4.6-5.2-7.9c1-1.1,2.4-1.4,3.6-2.2c1.6-0.9,2.6-2.5,4-3.5C114,751,113.7,755.1,113,759.4z"/><path d="M277.4,748.5c-1.4-0.7-3.8-2.5-4.9-0.5c0,0,0,0,0,0c0,0,0,0,0,0c0,0,0,0,0,0c-3.2,3-1.2,9.3-0.1,13c0.6,2,2.3,3.5,3.9,4.7 c1,0.6,2,0.3,3,0c3-0.9,2.9-4.8,2.9-7.4C281.9,754.7,280.5,750.7,277.4,748.5z M277.8,758.6c-0.7,0.1-1-0.7-1.5-1.1 c-0.9-0.6-1.1-1.6-1.3-2.6c1.7,0.6,2.8,1.9,3.2,3.6C278.1,758.5,277.9,758.6,277.8,758.6z"/><path d="M271.4 734.3L271.4 734.3 271.4 734.3 271.4 734.3z"/><path d="M270.6,731.7C270.6,731.7,270.6,731.7,270.6,731.7C270.6,731.7,270.6,731.7,270.6,731.7 C270.6,731.7,270.6,731.7,270.6,731.7z"/></g></svg>